<svg xmlns="http://www.w3.org/2000/svg" aria-hidden="true" style="position:absolute;width:0;height:0;overflow:hidden"><defs><symbol id="icon-aiming" viewBox="0 0 32 32"><path fill="none" stroke="#de3809" stroke-linecap="square" stroke-width="2" d="M23.408 16a7.42 7.42 0 0 1-2.134 5.302 7.4 7.4 0 0 1-8.131 1.632A7.41 7.41 0 0 1 8.594 16m14.814 0a7.41 7.41 0 0 0-12.596-5.147A7.4 7.4 0 0 0 8.594 16m14.814 0A7.407 7.407 0 0 1 16 23.406M23.408 16a7.4 7.4 0 0 0-2.17-5.238A7.4 7.4 0 0 0 16 8.592M23.408 16h1.48M8.593 16A7.407 7.407 0 0 0 16 23.407M8.593 16a7.41 7.41 0 0 1 7.406-7.408M8.593 16H7.11M16 23.407v1.481m0-16.296V7.111M29.333 16c0 7.364-5.969 13.333-13.333 13.333S2.667 23.364 2.667 16 8.636 2.667 16 2.667 29.333 8.636 29.333 16zm-11.852 0a1.47 1.47 0 0 1-.434 1.048 1.49 1.49 0 0 1-1.615.321 1.5 1.5 0 0 1-.802-.802 1.478 1.478 0 0 1 1.368-2.048A1.48 1.48 0 0 1 17.479 16z" style="stroke:var(--color1, #de3809)"/></symbol><symbol id="icon-arrow-back" viewBox="0 0 32 32"><path stroke-linecap="round" stroke-linejoin="round" stroke-width="1.333" d="M21.333 26 10.666 16 21.333 6"/></symbol><symbol id="icon-auto-focus" viewBox="0 0 32 32"><path fill="#de3809" d="M5.162 8.787A1 1 0 0 0 6.837 9.88zm21.839 7.508a1 1 0 0 0 1.999.077zm-.123 6.85a1 1 0 0 0-1.756-.958zM5 16a1 1 0 0 0-2 0zM29 5.333a1 1 0 0 0-2 0zM27 16a1 1 0 0 0 2 0zM3 26.667a1 1 0 0 0 2 0zM22 16h-1a5 5 0 0 1-5 5v2a7 7 0 0 0 7-7zm-6 6v-1a5 5 0 0 1-5-5H9a7 7 0 0 0 7 7zm-6-6h1a5 5 0 0 1 5-5V9a7 7 0 0 0-7 7zm6-6v1a5 5 0 0 1 5 5h2a7 7 0 0 0-7-7zm-2 6h-1a3 3 0 0 0 3 3v-2a1 1 0 0 1-1-1zm2 2v1a3 3 0 0 0 3-3h-2a1 1 0 0 1-1 1zm2-2h1a3 3 0 0 0-3-3v2a1 1 0 0 1 1 1zm-2-2v-1a3 3 0 0 0-3 3h2a1 1 0 0 1 1-1zM6 9.333c.838.546.837.547.837.547v.002l.001-.001.007-.01.034-.05q.048-.07.152-.209a13 13 0 0 1 3.104-2.903c2.137-1.412 5.231-2.473 9.205-1.098l.654-1.89c-4.693-1.624-8.432-.352-10.962 1.319a15 15 0 0 0-3.599 3.367q-.126.17-.195.267l-.053.077-.015.023-.005.007-.002.003-.001.001s-.001.001.837.547zm13.667-4.666-.327.945c4.004 1.386 5.898 4.052 6.813 6.38a12.6 12.6 0 0 1 .771 3.061 11 11 0 0 1 .078 1.178l-.001.056v.011-.002l.999.038c.999.039.999.038.999.037v-.013l.001-.027.001-.09q.001-.115-.005-.317a13 13 0 0 0-.087-1.111 14.6 14.6 0 0 0-.896-3.553c-1.084-2.756-3.357-5.923-8.02-7.537l-.327.945zm6.333 18c-.878-.479-.878-.479-.877-.48s0 0 0-.001v-.001l-.004.008-.026.045a9 9 0 0 1-.642.917 11 11 0 0 1-2.163 2.077c-1.919 1.392-4.866 2.548-9.037 1.466l-.502 1.936c4.829 1.252 8.382-.092 10.713-1.784a13 13 0 0 0 2.556-2.454c.28-.353.489-.657.632-.876q.106-.166.163-.263l.045-.077.013-.023.004-.008.002-.003.001-.001s.001-.001-.877-.48zm-13 5 .251-.968c-4.132-1.071-6.173-3.722-7.207-6.134a13.5 13.5 0 0 1-1.029-4.226 8 8 0 0 1-.014-.265l-.002-.062v-.013.002l-1 .001-1 .001v.041l.002.095q.003.12.017.336c.019.285.057.687.132 1.174.15.972.45 2.297 1.054 3.705 1.216 2.837 3.675 6.02 8.543 7.282l.251-.968zM28 5.333h-1V16h2V5.333zM4 16H3v10.667h2V16z" style="fill:var(--color1, #de3809)"/></symbol><symbol id="icon-brain-cognitive" viewBox="0 0 32 32"><path fill="none" stroke="#de3809" stroke-linecap="round" stroke-linejoin="round" stroke-width="2" d="M21.714 30.857v-5.714h4.571a2.287 2.287 0 0 0 2.285-2.285v-9.143a12.56 12.56 0 0 0-6.428-10.966A12.573 12.573 0 0 0 3.437 14.206a12.57 12.57 0 0 0 6.848 10.709v5.943M12.571 7.57a7.43 7.43 0 0 0-3.282 8.914c.274.766 1.097 1.15 1.883.942 3.97-1.051 8.011-3.897 10.469-6.114.651-.587.784-1.57.206-2.229a7.43 7.43 0 0 0-9.275-1.513z" style="stroke:var(--color1, #de3809)"/></symbol><symbol id="icon-chevron" viewBox="0 0 32 32"><path fill="#de3809" d="M4.353 8.427c.111-.135.244-.243.39-.316S5.045 8 5.203 8q.239 0 .46.111c.221.111.278.181.39.316l9.177 11.125a1 1 0 0 0 1.543 0l9.178-11.125c.225-.273.531-.426.849-.426s.624.153.849.426.352.643.352 1.029-.127.756-.352 1.03L16.851 23.573c-.111.135-.244.243-.39.316s-.302.111-.46.111-.314-.038-.46-.111a1.2 1.2 0 0 1-.39-.316L4.353 10.486c-.112-.135-.2-.296-.261-.472S4 9.648 4 9.457s.031-.381.092-.557.149-.337.261-.472z" style="fill:var(--color1, #de3809)"/></symbol><symbol id="icon-close" viewBox="0 0 32 32"><path fill="none" stroke="#fafafa" stroke-linecap="round" stroke-linejoin="round" stroke-width="1.333" d="m7 7 9 9m0 0-9 9m9-9 9 9m-9-9 9-9" style="stroke:var(--color2, #fafafa)"/></symbol><symbol id="icon-creative" viewBox="0 0 32 32"><path fill="none" stroke="#de3809" stroke-linecap="round" stroke-linejoin="round" stroke-width="2" d="M12.211 8.421h7.579M28 26V6a2 2 0 0 0-2-2H6a2 2 0 0 0-2 2v20a2 2 0 0 0 2 2h20a2 2 0 0 0 2-2M16 12.211l-1.931 3.94-4.385.636 3.177 3.105-.759 4.319 3.899-2.078 3.899 2.078-.753-4.319 3.171-3.105-4.361-.636z" style="stroke:var(--color1, #de3809)"/></symbol><symbol id="icon-email" viewBox="0 0 32 32"><path fill="#de3809" d="M29.333 8c0-1.467-1.2-2.667-2.667-2.667H5.333A2.675 2.675 0 0 0 2.666 8v16c0 1.467 1.2 2.667 2.667 2.667h21.333c1.467 0 2.667-1.2 2.667-2.667zm-2.666 0L16 14.667 5.333 8h21.333zm0 16H5.334V10.667l10.667 6.667 10.667-6.667z" style="fill:var(--color1, #de3809)"/></symbol><symbol id="icon-focus" viewBox="0 0 32 32"><path fill="none" stroke="#de3809" stroke-linecap="square" stroke-width="2" d="M25.333 16a9.34 9.34 0 0 1-2.733 6.6m2.733-6.6a9.333 9.333 0 0 0-9.334-9.334M25.333 16a9.33 9.33 0 0 1-2.734 6.6m2.734-6.6h4M22.6 22.6a9.34 9.34 0 0 1-6.6 2.733m6.6-2.733a9.33 9.33 0 0 1-6.6 2.734m0-.001A9.34 9.34 0 0 1 9.4 22.6m6.6 2.733a9.33 9.33 0 0 1-6.6-2.734m6.6 2.734v4M9.4 22.6A9.34 9.34 0 0 1 6.667 16M9.4 22.6A9.33 9.33 0 0 1 6.666 16m.001 0a9.333 9.333 0 0 1 9.334-9.334M6.667 16h-4M16 6.667v-4M17.333 16a1.335 1.335 0 0 1-2.277.943 1.335 1.335 0 0 1 0-1.886 1.335 1.335 0 0 1 1.886 0c.25.251.391.589.391.943z" style="stroke:var(--color1, #de3809)"/></symbol><symbol id="icon-intuition" viewBox="0 0 32 32"><path fill="none" stroke="#de3809" stroke-linecap="round" stroke-linejoin="round" stroke-width="2" d="M30.333 16c0 7.916-6.417 14.333-14.333 14.333S1.667 23.916 1.667 16m28.666 0c0-7.916-6.417-14.333-14.333-14.333S1.667 8.084 1.667 16m28.666 0h-10.75M1.667 16h10.75m7.166 0a3.583 3.583 0 1 1-7.166 0m7.166 0a3.583 3.583 0 1 0-7.166 0" style="stroke:var(--color1, #de3809)"/></symbol><symbol id="icon-logical-partition" viewBox="0 0 32 32"><path d="M9 8a1 1 0 1 0 0-2 1 1 0 0 0 0 2"/><path d="M6 2.5h20A1.503 1.503 0 0 1 27.5 4v6a1.503 1.503 0 0 1-1.5 1.5h-9.5v5H25a1.503 1.503 0 0 1 1.5 1.5v4.5H28a1.503 1.503 0 0 1 1.5 1.5v4a1.503 1.503 0 0 1-1.5 1.5h-4a1.503 1.503 0 0 1-1.5-1.5v-4a1.503 1.503 0 0 1 1.5-1.5h1.5v-5h-9v5H18a1.503 1.503 0 0 1 1.5 1.5v4a1.503 1.503 0 0 1-1.5 1.5h-4a1.503 1.503 0 0 1-1.5-1.5v-4a1.503 1.503 0 0 1 1.5-1.5h1.5v-5h-9v5H8A1.503 1.503 0 0 1 9.5 24v4A1.503 1.503 0 0 1 8 29.5H4A1.503 1.503 0 0 1 2.5 28v-4A1.503 1.503 0 0 1 4 22.5h1.5V18A1.503 1.503 0 0 1 7 16.5h8.5v-5H6A1.503 1.503 0 0 1 4.5 10V4A1.503 1.503 0 0 1 6 2.5m-2.5 26h5v-5h-5zm10 0h5v-5h-5zm10 0h5v-5h-5zm-18-18h21v-7h-21z"/></symbol><symbol id="icon-logic-nand" viewBox="0 0 32 32"><path fill="none" stroke="#de3809" stroke-linecap="round" stroke-linejoin="round" stroke-width="2" d="M29.333 16h-4m0 0a2.668 2.668 0 0 1-5.334 0m5.334 0a2.668 2.668 0 0 0-5.334 0M2.667 12h4m-4 8h4M20 16c0-4.667-2.667-9.333-10.667-9.333H6.666v18.667h2.667c8 0 10.667-4.667 10.667-9.333z" style="stroke:var(--color1, #de3809)"/></symbol><symbol id="icon-menu" viewBox="0 0 32 32"><path fill="none" stroke="#fafafa" stroke-linecap="round" stroke-width="1.333" d="M6.667 8h18.667M6.667 24h18.667M6.667 16h18.667" style="stroke:var(--color2, #fafafa)"/></symbol><symbol id="icon-patience" viewBox="0 0 32 32"><path fill="#de3809" d="M12 16.333a1 1 0 0 0 0 2zm2.664 1.2-.51.86.004.002.506-.863zm.901 1.275-.886.463.001.001zm2.023 3.859-.886.464a1 1 0 0 0 1.83-.135zm2.793-8 .886-.464a1 1 0 0 0-1.83.135zm2.923 5.134-.509.861.001.001zM26.667 21a1 1 0 0 0 0-2zm-.311-4.791a1 1 0 1 0 1.955-.419zM19.365 3.963l-.689.725.004.004zm-6.485 0 .685.729.004-.004zm13.898 20.56a1 1 0 1 0-1.705-1.045zM12 17.333v1h1.067v-2H12zm1.067 0v1c.44 0 .697.001.889.02a1 1 0 0 1 .164.027c.024.007.032.012.035.013l1.02-1.72a2.4 2.4 0 0 0-1.022-.31c-.313-.031-.686-.03-1.086-.03zm1.597.2-.506.863c.003.002.009.005.022.018.016.016.045.05.089.117.1.149.213.363.41.74l1.773-.926c-.178-.34-.346-.665-.519-.924a2.34 2.34 0 0 0-.763-.751zm.901 1.275-.886.464 2.023 3.859 1.771-.929-2.023-3.859zm2.023 3.859.944.33 2.793-8-1.888-.659-2.793 8zm2.793-8-.886.464 2.021 3.859 1.772-.928-2.021-3.859zm2.022 3.858-.886.464c.178.339.346.664.518.922.186.28.418.549.761.751l1.017-1.722c-.003-.002-.009-.005-.023-.019a1 1 0 0 1-.09-.118 9 9 0 0 1-.411-.742zm.901 1.276-.507.862c.339.2.686.275 1.02.307.312.031.685.03 1.085.03v-2c-.44 0-.697-.001-.889-.02a1 1 0 0 1-.165-.027c-.024-.007-.033-.012-.036-.013zm1.597.199v1h1.765v-2h-1.765zm2.432-4 .978-.209c-1.094-5.105-5.315-9.789-8.261-12.557l-1.369 1.458c2.921 2.744 6.721 7.063 7.675 11.518l.978-.209zM19.365 3.963l.689-.725a5.7 5.7 0 0 0-3.932-1.57v2c.951 0 1.865.365 2.554 1.02zm-3.242-1.296v-1a5.7 5.7 0 0 0-3.932 1.57l1.378 1.45a3.7 3.7 0 0 1 2.554-1.02zM12.88 3.963l-.685-.729c-1.724 1.621-3.838 3.855-5.527 6.418-1.681 2.551-3.002 5.518-3.002 8.586h2c0-2.511 1.093-5.089 2.672-7.485 1.571-2.384 3.564-4.498 5.227-6.061zM4.667 18.237h-1c0 5.967 4.733 12.096 12.456 12.096v-2c-6.512 0-10.456-5.124-10.456-10.096zm11.456 11.096v1c4.89 0 8.606-2.469 10.655-5.811l-1.705-1.046c-1.705 2.781-4.792 4.856-8.95 4.856z" style="fill:var(--color1, #de3809)"/></symbol><symbol id="icon-pattern" viewBox="0 0 32 32"><path fill="#0e1f34" d="M8 25.64q-.69 0-1.165-.475c-.475-.475-.476-.705-.476-1.165q0-.69.476-1.165c.476-.475.706-.475 1.165-.476q.166 0 .295.027a1 1 0 0 1 .269.092l5.913-5.913q-.167-.444-.073-.909c.094-.465.209-.58.44-.811q.346-.345.811-.44.466-.093.909.073l5.913-5.913-.08-.269a1 1 0 0 1-.039-.295q0-.69.476-1.165c.476-.475.706-.476 1.165-.476q.69 0 1.165.476c.475.476.476.706.476 1.165q0 .69-.476 1.165c-.476.475-.706.476-1.165.476q-.411 0-.564-.119l-5.913 5.907a1.63 1.63 0 0 1-.367 1.727q-.353.355-.819.448c-.466.093-.614.036-.909-.08L9.66 23.281l.052.052h4.789q.213-.445.608-.711c.395-.266.56-.264.889-.264q.502 0 .915.261c.413.261.473.411.599.713h4.973q.213-.453.612-.715c.399-.262.566-.26.901-.26q.69 0 1.165.476c.475.476.476.706.476 1.165q0 .69-.476 1.165c-.476.475-.706.476-1.165.476q-.503 0-.901-.264c-.398-.264-.47-.413-.612-.711h-4.973q-.186.453-.6.715-.41.26-.913.26-.495 0-.889-.264c-.394-.264-.466-.414-.608-.711H9.497q-.187.447-.595.711c-.408.264-.573.264-.903.264zm0-8q-.69 0-1.165-.476c-.475-.476-.476-.705-.476-1.164q0-.688.476-1.165c.476-.477.706-.477 1.165-.476q.69.002 1.165.476c.475.474.476.705.476 1.165q0 .69-.476 1.165c-.476.475-.706.475-1.165.476zm0-7.999q-.69 0-1.165-.476C6.36 8.689 6.359 8.459 6.359 8q0-.69.476-1.165c.476-.475.706-.476 1.165-.476q.69 0 1.165.476c.475.476.476.706.476 1.165q0 .69-.476 1.165c-.476.475-.706.476-1.165.476m6.835-.476q-.476-.476-.476-1.165c0-.689.159-.848.476-1.165q.476-.476 1.165-.476c.689 0 .848.159 1.165.476q.476.476.476 1.165c0 .689-.159.848-.476 1.165q-.476.476-1.165.476c-.689 0-.848-.159-1.165-.476M24 17.641q-.69 0-1.165-.476c-.475-.476-.476-.706-.476-1.165q0-.69.476-1.165c.476-.475.706-.476 1.165-.476q.69 0 1.165.476c.475.476.476.706.476 1.165q0 .69-.476 1.165c-.476.475-.706.476-1.165.476" style="fill:var(--color3, #0e1f34)"/><path fill="#de3809" d="M8 22.359v-1.333h-.003zm.295.026-.272 1.305.007.001.007.001zm.269.092-.569 1.206.848.4.663-.663zm5.913-5.913.943.943.607-.607-.302-.804-1.248.469zm1.178-2.16-.261-1.307-.005.001zm.909.073-.47 1.248.805.303.608-.608zm5.913-5.913.943.943.561-.561-.226-.761-1.278.38zm-.08-.269 1.278-.38-.002-.006zm1.039 1.228.816-1.054-.928-.718-.83.829zm-5.913 5.906-.942-.943-.609.608.303.805zm-.367 1.727-.941-.945-.004.004zm-.819.448.261 1.307h.001zm-.909-.08.486-1.242-.811-.318-.617.616zM9.661 23.28l-.942-.944-.945.943.944.944zm.052.052-.943.943.391.391h.552v-1.333zm4.79 0v1.333h.84l.363-.757zm.608-.711-.741-1.108-.003.002zm1.804-.002-.714 1.126.001.001zm.598.713-1.232.511.341.823h.891v-1.333zm4.974 0v1.333h.846l.36-.766-1.206-.568zm.612-.715-.728-1.117-.003.002zm-.612 2.048 1.203-.575-.362-.759h-.841zm-4.974 0v-1.333h-.893l-.34.826 1.233.508zm-.6.715-.713-1.127h-.001l.713 1.127zm-1.802-.004-.744 1.107.003.002zm-.608-.711 1.202-.576-.363-.757h-.84zm-5.006 0v-1.333h-.888l-.342.819zM8 25.64v-1.333c-.117 0-.163-.025-.224-.085L5.893 26.11A2.92 2.92 0 0 0 8 26.974v-1.333zm-1.165-.475.941-.944c-.059-.059-.084-.104-.084-.221H5.025c0 .804.292 1.535.868 2.109zM6.359 24h1.333c0-.117.025-.163.084-.221l-1.883-1.888A2.9 2.9 0 0 0 5.025 24zm.476-1.165.941.944c.061-.061.109-.087.226-.087l-.005-2.667a2.92 2.92 0 0 0-2.104.865l.941.944zM8 22.359v1.333l.037.001q.007 0-.014-.003l.544-2.611A3 3 0 0 0 8 21.024v1.333zm.295.026-.259 1.308c-.04-.008-.055-.017-.041-.01l1.138-2.412a2.5 2.5 0 0 0-.579-.194zm.269.092.943.943 5.913-5.913-1.886-1.886-5.913 5.913zm5.913-5.913 1.248-.469a.3.3 0 0 1-.014-.179l-2.615-.524a2.97 2.97 0 0 0 .132 1.64l1.248-.469zm-.073-.909 1.307.262a.22.22 0 0 1 .074-.128L13.903 13.9a2.9 2.9 0 0 0-.806 1.493zm.44-.811.941.945a.24.24 0 0 1 .136-.078l-.533-2.613a2.9 2.9 0 0 0-1.485.802l.941.945zm.811-.44.261 1.307a.3.3 0 0 1 .178.014l.94-2.496a2.96 2.96 0 0 0-1.641-.133l.261 1.307zm.909.073.943.943 5.913-5.913-1.886-1.886-5.913 5.913zm5.913-5.913 1.278-.38-.08-.269-2.556.759.08.269 1.278-.38zm-.08-.269 1.276-.386c.02.066.018.102.018.091h-2.667c0 .211.024.444.096.68zM22.359 8h1.333c0-.115.025-.162.085-.223l-1.886-1.886a2.92 2.92 0 0 0-.867 2.108h1.333zm.476-1.165.943.943c.061-.061.107-.085.223-.085V5.026c-.804 0-1.534.293-2.108.867l.943.943zM24 6.359v1.333c.115 0 .162.025.223.085l1.886-1.886a2.92 2.92 0 0 0-2.108-.867v1.333zm1.165.476-.943.943c.061.061.085.107.085.223h2.667c0-.804-.293-1.534-.867-2.108l-.943.943zM25.641 8h-1.333c0 .115-.025.162-.085.223l1.886 1.886a2.92 2.92 0 0 0 .867-2.108h-1.333zm-.476 1.165-.943-.943c-.061.061-.107.085-.223.085v2.667c.804 0 1.534-.293 2.108-.867l-.943-.943zM24 9.641V8.308c-.08 0-.097-.006-.072-.001.015.003.053.012.105.034s.131.06.219.128l-1.632 2.109c.484.375 1.08.398 1.38.398V9.643zm-.564-.118-.942-.943-5.913 5.907 1.885 1.887 5.913-5.907-.942-.943zm-5.913 5.906-1.248.47a.3.3 0 0 1 .013.182l2.615.52a2.97 2.97 0 0 0-.133-1.642l-1.248.47zm.073.912-1.308-.26a.23.23 0 0 1-.073.13l1.882 1.889a2.9 2.9 0 0 0 .807-1.499zm-.44.815-.945-.941c-.06.06-.099.074-.136.082l.524 2.615a2.9 2.9 0 0 0 1.501-.814l-.945-.941zm-.819.448-.261-1.307a.26.26 0 0 1-.162-.014l-.972 2.483a2.9 2.9 0 0 0 1.657.146l-.261-1.307zm-.909-.08-.942-.944-5.767 5.756 1.884 1.887 5.767-5.756zM9.661 23.28l-.943.943.052.052 1.886-1.886-.052-.052zm.052.052v1.333h4.789v-2.667H9.713v1.333zm4.79 0 1.202.576a.43.43 0 0 1 .149-.18l-1.488-2.213a3.1 3.1 0 0 0-1.067 1.241l1.202.576zm.608-.711.741 1.108c.034-.023.07-.039.148-.039v-2.667c-.582 0-1.139.16-1.631.489l.741 1.108zm.889-.264v1.333c.09 0 .146.019.2.054l1.428-2.252a3 3 0 0 0-1.629-.469v1.333zm.915.262-.713 1.127a.18.18 0 0 1 .08.098l2.463-1.022a2.84 2.84 0 0 0-1.117-1.329zm.598.713v1.333h4.973v-2.667h-4.973zm4.974 0 1.206.568a.37.37 0 0 1 .137-.167l-1.462-2.23a3.03 3.03 0 0 0-1.087 1.262l1.206.568zm.612-.715.728 1.117a.3.3 0 0 1 .173-.043v-2.667c-.579 0-1.135.154-1.63.477l.728 1.117zm.901-.26v1.333c.115 0 .162.025.223.085l1.886-1.886a2.92 2.92 0 0 0-2.108-.867v1.333zm1.165.476-.943.943c.061.061.085.107.085.223h2.667c0-.804-.293-1.534-.867-2.108l-.943.943zm.476 1.166h-1.333c0 .115-.025.162-.085.223l1.886 1.886A2.92 2.92 0 0 0 26.976 24h-1.333zm-.476 1.165-.943-.943c-.061.061-.107.085-.223.085v2.667c.804 0 1.534-.293 2.108-.867l-.943-.943zM24 25.64v-1.333a.27.27 0 0 1-.165-.042l-1.472 2.223a2.93 2.93 0 0 0 1.638.486v-1.333zm-.901-.264.736-1.112a.4.4 0 0 1-.145-.174l-2.406 1.149a3.05 3.05 0 0 0 1.079 1.248zm-.612-.711v-1.333h-4.973v2.667h4.973v-1.333zm-4.974 0-1.233-.508a.17.17 0 0 1-.08.095l1.425 2.254a2.83 2.83 0 0 0 1.12-1.334zm-.6.715-.713-1.127a.35.35 0 0 1-.2.053v2.667c.579 0 1.132-.154 1.627-.467zm-.913.26v-1.333c-.078 0-.114-.016-.148-.039l-1.483 2.217a2.9 2.9 0 0 0 1.631.489v-1.333zm-.889-.264.744-1.107a.4.4 0 0 1-.149-.18l-2.405 1.152c.241.503.598.926 1.067 1.241l.744-1.107zm-.608-.711v-1.333H9.498v2.667h5.005v-1.333zm-5.006 0-1.23-.514a.2.2 0 0 1-.089.105l1.449 2.239a2.87 2.87 0 0 0 1.101-1.316zm-.594.711-.724-1.119a.3.3 0 0 1-.178.05v2.667c.582 0 1.135-.16 1.627-.478l-.724-1.119zM8 17.64v-1.333c-.115 0-.162-.025-.223-.085l-1.886 1.886a2.92 2.92 0 0 0 2.108.867v-1.333zm-1.165-.476.943-.943c-.061-.061-.085-.107-.085-.221H5.026c0 .804.293 1.533.867 2.107zM6.359 16h1.333c0-.114.024-.161.087-.224l-1.888-1.883A2.92 2.92 0 0 0 5.026 16zm.476-1.165.944.941c.06-.06.105-.084.219-.084l.005-2.667a2.9 2.9 0 0 0-2.112.868zM8 14.359l-.003 1.333c.118 0 .165.026.226.087l1.883-1.888a2.92 2.92 0 0 0-2.104-.865zm1.165.476-.941.944c.059.059.084.104.084.221h2.667c0-.804-.292-1.535-.868-2.109zM9.641 16H8.308c0 .117-.025.162-.084.221l1.883 1.888A2.9 2.9 0 0 0 10.975 16zm-.476 1.165-.941-.944c-.061.061-.109.087-.226.087l.005 2.667a2.92 2.92 0 0 0 2.104-.865l-.941-.944zM8 9.641V8.308c-.115 0-.162-.025-.223-.085l-1.886 1.886a2.92 2.92 0 0 0 2.108.867V9.643zm-1.165-.476.943-.943c-.061-.061-.085-.107-.085-.223H5.026c0 .804.293 1.534.867 2.108zM6.359 8h1.333c0-.115.025-.162.085-.223L5.891 5.891a2.92 2.92 0 0 0-.867 2.108h1.333zm.476-1.165.943.943c.061-.061.107-.085.223-.085V5.026c-.804 0-1.534.293-2.108.867zM8 6.359v1.333c.115 0 .162.025.223.085l1.886-1.886a2.92 2.92 0 0 0-2.108-.867v1.333zm1.165.476-.943.943c.061.061.085.107.085.223h2.667c0-.804-.293-1.534-.867-2.108zM9.641 8H8.308c0 .115-.025.162-.085.223l1.886 1.886a2.92 2.92 0 0 0 .867-2.108H9.643zm-.476 1.165-.943-.943c-.061.061-.107.085-.223.085v2.667c.804 0 1.534-.293 2.108-.867zm5.67 0 .943-.943c-.061-.061-.085-.107-.085-.223h-2.667c0 .804.292 1.534.867 2.108zM14.359 8h1.333c0-.115.025-.162.085-.223l-1.886-1.886a2.92 2.92 0 0 0-.867 2.108h1.333zm.476-1.165.943.943c.061-.061.107-.085.223-.085V5.026c-.804 0-1.534.293-2.108.867zM16 6.359v1.333c.115 0 .162.025.223.085l1.886-1.886a2.92 2.92 0 0 0-2.108-.867v1.333zm1.165.476-.943.943c.061.061.085.107.085.223h2.667c0-.804-.293-1.534-.867-2.108l-.943.943zM17.641 8h-1.333c0 .115-.025.162-.085.223l1.886 1.886a2.92 2.92 0 0 0 .867-2.108h-1.333zm-.476 1.165-.943-.943c-.061.061-.107.085-.223.085v2.667c.804 0 1.534-.293 2.108-.867l-.943-.943zM16 9.641V8.308c-.115 0-.162-.025-.223-.085l-1.886 1.886a2.92 2.92 0 0 0 2.108.867V9.643zm8 8v-1.333c-.115 0-.162-.025-.223-.085l-1.886 1.886a2.92 2.92 0 0 0 2.108.867v-1.333zm-1.165-.476.943-.943c-.061-.061-.085-.107-.085-.223h-2.667c0 .804.292 1.534.867 2.108l.943-.943zM22.359 16h1.333c0-.115.025-.162.085-.223l-1.886-1.886a2.92 2.92 0 0 0-.867 2.108h1.333zm.476-1.165.943.943c.061-.061.107-.085.223-.085v-2.667c-.804 0-1.534.292-2.108.867l.943.943zM24 14.359v1.333c.115 0 .162.025.223.085l1.886-1.886a2.92 2.92 0 0 0-2.108-.867v1.333zm1.165.476-.943.943c.061.061.085.107.085.223h2.667c0-.804-.293-1.534-.867-2.108l-.943.943zM25.641 16h-1.333c0 .115-.025.162-.085.223l1.886 1.886a2.92 2.92 0 0 0 .867-2.108h-1.333zm-.476 1.165-.943-.943c-.061.061-.107.085-.223.085v2.667c.804 0 1.534-.293 2.108-.867l-.943-.943z" style="fill:var(--color1, #de3809)"/></symbol><symbol id="icon-playstore" viewBox="0 0 150 32"><path fill="#eb4335" d="M13.447 15.301.123 29.008q0 .003.003.007c.408 1.49 1.811 2.585 3.475 2.585.666 0 1.29-.175 1.826-.48l.043-.024 14.998-8.388-7.019-7.407z" style="fill:var(--color4, #eb4335)"/><path fill="#fabc13" d="m26.927 12.967-.012-.008L20.44 9.32l-7.295 6.292 7.32 7.094 6.441-3.601c1.129-.591 1.895-1.744 1.895-3.075 0-1.321-.756-2.47-1.873-3.062z" style="fill:var(--color5, #fabc13)"/><path fill="#547dbf" d="M.123 2.992q-.121.43-.123.898v24.22q0 .47.123.898l13.782-13.356z" style="fill:var(--color6, #547dbf)"/><path fill="#30a851" d="m13.545 15.999 6.897-6.682L5.461.899A3.7 3.7 0 0 0 3.601.4C1.937.4.532 1.498.123 2.989v.004z" style="fill:var(--color7, #30a851)"/><path fill="#fafafa" d="M44.552 1.752a2.8 2.8 0 0 0-.952-.579 3.3 3.3 0 0 0-1.16-.205q-.63 0-1.16.21-.526.21-.91.599-.38.39-.593.924-.208.534-.208 1.178c0 .644.069.824.208 1.183q.209.539.588.934.385.395.905.609.525.215 1.149.215.561 0 1.035-.175c.474-.175.593-.283.832-.499q.358-.324.582-.779c.224-.455.244-.637.286-1.003h-2.658V3.51h3.672l.031.409q0 .854-.276 1.563c-.276.709-.446.882-.785 1.228a3.5 3.5 0 0 1-1.201.799q-.692.28-1.529.28a4.3 4.3 0 0 1-1.597-.29 4 4 0 0 1-1.274-.819 3.8 3.8 0 0 1-.843-1.238 3.9 3.9 0 0 1-.296-1.538q0-.839.302-1.548.302-.714.842-1.243.546-.53 1.279-.819a4.3 4.3 0 0 1 1.597-.295q.816 0 1.555.27.744.27 1.321.774l-.744.709zm2.388 5.886V.15h4.863v.969h-3.718V3.36h3.505v.968h-3.505v2.341h3.771v.968h-4.915zm8.93 0h-1.144v-6.52h-2.439V.149h6.022v.969H55.87zm5.03 0V.15h1.144v7.488zm5.206 0h-1.144v-6.52h-2.439V.149h6.022v.969h-2.439zm8.769.15a4.5 4.5 0 0 1-1.628-.29 3.9 3.9 0 0 1-1.295-.814 3.75 3.75 0 0 1-.848-1.238 3.95 3.95 0 0 1-.302-1.553q0-.843.302-1.553.302-.714.848-1.238a3.9 3.9 0 0 1 1.295-.814 4.5 4.5 0 0 1 1.628-.29q.883 0 1.623.29.744.29 1.29.814.552.524.853 1.238.302.709.302 1.553 0 .839-.302 1.553a3.7 3.7 0 0 1-.853 1.238 3.9 3.9 0 0 1-1.29.814 4.4 4.4 0 0 1-1.623.29m0-.969q.624 0 1.155-.22c.531-.22.66-.351.92-.614q.39-.4.603-.929.218-.534.218-1.163c0-.629-.073-.807-.218-1.163a2.8 2.8 0 0 0-.603-.929 2.7 2.7 0 0 0-.92-.614q-.53-.22-1.155-.22c-.625 0-.801.073-1.155.22q-.525.215-.92.614-.39.394-.608.929c-.218.535-.218.744-.218 1.163s.073.807.218 1.163a2.9 2.9 0 0 0 .608.934q.395.395.92.614.53.215 1.155.215m11.697.819h-1.258l-4.483-5.781v5.781h-1.144V.15h1.258l4.483 5.786V.15h1.144zm-35.753 7.678a5 5 0 0 0-1.768-1.088 6.2 6.2 0 0 0-2.174-.379 5.8 5.8 0 0 0-2.153.389 4.8 4.8 0 0 0-1.675 1.118 4.95 4.95 0 0 0-1.092 1.717q-.385.988-.385 2.197 0 1.218.385 2.236a5.3 5.3 0 0 0 1.103 1.747q.718.74 1.695 1.138c.977.398 1.369.399 2.153.399q1.02 0 1.872-.3a4.6 4.6 0 0 0 1.498-.879q.655-.58 1.071-1.388c.416-.808.461-1.138.551-1.797h-4.93v-2.037h7.354l.073.998q0 1.707-.551 3.125a7.1 7.1 0 0 1-1.55 2.446q-1.01 1.029-2.392 1.588c-1.382.559-1.942.559-3.058.559q-1.727 0-3.204-.589a8 8 0 0 1-2.569-1.637 7.6 7.6 0 0 1-1.706-2.476q-.603-1.418-.603-3.085 0-1.657.603-3.075a7.7 7.7 0 0 1 1.695-2.486 7.7 7.7 0 0 1 2.559-1.637q1.477-.59 3.193-.589a9.1 9.1 0 0 1 3.12.539 8.4 8.4 0 0 1 2.673 1.548l-1.789 1.697zm9.726 11.692q-1.58 0-2.84-.679a5.2 5.2 0 0 1-1.976-1.847q-.718-1.178-.718-2.666c0-1.488.239-1.877.718-2.656a5.2 5.2 0 0 1 1.976-1.857q1.259-.68 2.84-.679 1.592 0 2.84.679c1.248.679 1.484 1.072 1.955 1.857q.718 1.168.718 2.656c0 1.488-.239 1.88-.718 2.666q-.707 1.168-1.955 1.847c-1.248.679-1.779.679-2.84.679m-.01-2.207q.833 0 1.487-.389c.654-.389.78-.616 1.03-1.068a3.06 3.06 0 0 0 .385-1.538q0-.849-.385-1.518-.375-.68-1.03-1.068c-.655-.388-.933-.389-1.487-.389q-.822 0-1.487.389a2.86 2.86 0 0 0-1.04 1.068 3.05 3.05 0 0 0-.374 1.518q0 .858.374 1.538.385.68 1.04 1.068.666.39 1.487.389m11.557 2.207q-1.581 0-2.84-.679a5.2 5.2 0 0 1-1.976-1.847q-.718-1.178-.718-2.666c0-1.488.239-1.877.718-2.656a5.2 5.2 0 0 1 1.976-1.857q1.259-.68 2.84-.679 1.591 0 2.84.679c1.249.679 1.484 1.072 1.956 1.857q.718 1.168.718 2.656c0 1.488-.239 1.88-.718 2.666q-.707 1.168-1.956 1.847c-1.249.679-1.779.679-2.84.679m-.011-2.207q.832 0 1.487-.389c.655-.389.78-.616 1.03-1.068a3.06 3.06 0 0 0 .385-1.538q0-.849-.385-1.518-.375-.68-1.03-1.068c-.655-.388-.933-.389-1.487-.389q-.822 0-1.487.389a2.86 2.86 0 0 0-1.04 1.068 3.05 3.05 0 0 0-.374 1.518q0 .858.374 1.538.385.68 1.04 1.068.666.39 1.487.389m11.048 2.087q-1.446 0-2.58-.669c-1.134-.669-1.352-1.055-1.789-1.827q-.655-1.168-.655-2.636 0-1.478.655-2.636c.655-1.158 1.033-1.381 1.789-1.827q1.134-.669 2.58-.669 1.133 0 2.09.419c.957.419 1.178.669 1.622 1.168l.125-1.388h2.247v9.715q0 1.658-.739 2.885-.727 1.228-2.059 1.897-1.331.68-3.151.679a7.2 7.2 0 0 1-4.525-1.548l1.051-2.007q1.394 1.348 3.308 1.348 1.082 0 1.872-.419a2.94 2.94 0 0 0 1.238-1.168q.447-.749.447-1.757v-.958q-.666.659-1.57 1.028c-.904.369-1.255.369-1.955.369zm.561-2.187q.82 0 1.487-.35.676-.36 1.071-.978.406-.62.406-1.408v-.439a2.46 2.46 0 0 0-.406-1.398 2.75 2.75 0 0 0-1.071-.958 3.1 3.1 0 0 0-1.487-.359 3 3 0 0 0-1.53.389q-.675.38-1.071 1.048-.385.669-.385 1.508c0 .839.129 1.062.385 1.508q.396.67 1.071 1.058.677.38 1.53.379m10.069 2.107h-2.735V11.831h2.735zm11.359-1.158q-1.945 1.358-4.254 1.358-1.675 0-3.006-.699c-1.331-.699-1.591-1.102-2.111-1.907q-.77-1.207-.77-2.736 0-1.447.697-2.586a5.05 5.05 0 0 1 1.924-1.797q1.228-.659 2.766-.659 1.602 0 2.809.729a4.95 4.95 0 0 1 1.893 2.007q.676 1.278.676 2.975v.32h-8.009q.187.68.655 1.198.478.52 1.186.809c.708.289 1.002.29 1.592.29q1.663 0 3.078-1.038zm-7.488-4.433h5.742a2.75 2.75 0 0 0-.478-1.308 2.6 2.6 0 0 0-1.009-.869q-.614-.32-1.383-.32-.781 0-1.394.32c-.613.32-.742.509-.998.889a2.9 2.9 0 0 0-.478 1.288zm13.429 5.591V11.831h5.159q1.956 0 3.36.599 1.415.599 2.163 1.707.759 1.108.759 2.646 0 1.527-.759 2.646-.749 1.118-2.153 1.727-1.404.599-3.35.599h-2.434v5.052zm2.747-7.358h2.153q1.8 0 2.767-.699.967-.709.967-1.967c0-1.258-.326-1.488-.978-1.947q-.967-.689-2.757-.689h-2.153zm12.908 7.358h-2.735V11.831h2.735zm10.912 0H135.4l-.146-1.228a3.9 3.9 0 0 1-1.425 1.058 4.7 4.7 0 0 1-1.893.369q-1.102 0-1.966-.409-.864-.42-1.363-1.138a2.84 2.84 0 0 1-.489-1.637q0-.968.53-1.697.541-.74 1.467-1.158.935-.42 2.132-.419.728 0 1.456.16a6.4 6.4 0 0 1 1.362.449v-.32q0-.659-.374-1.138c-.374-.479-.586-.566-1.009-.739a3.6 3.6 0 0 0-1.425-.27 4.5 4.5 0 0 0-1.435.24 4.6 4.6 0 0 0-1.342.689l-.728-1.927a9.4 9.4 0 0 1 2.039-.799q1.05-.27 2.049-.27 1.467 0 2.538.559a3.9 3.9 0 0 1 1.654 1.578q.593 1.019.593 2.406v5.641zm-5.159-1.777q.675 0 1.248-.27.583-.27.946-.749a1.9 1.9 0 0 0 .395-1.118v-.11a3.8 3.8 0 0 0-1.102-.519 4.2 4.2 0 0 0-1.238-.19q-.957 0-1.57.419-.615.41-.614 1.078 0 .409.25.749.25.33.686.519.447.19.998.19zm11.474 6.769h-2.736l2.164-5.032-5.159-9.944h2.881l3.495 7.139 3.079-7.139h2.735z" style="fill:var(--color2, #fafafa)"/></symbol><symbol id="icon-speed" viewBox="0 0 32 32"><path fill="none" stroke="#de3809" stroke-linecap="round" stroke-linejoin="round" stroke-width="2" d="M22.682 4.46A13.27 13.27 0 0 0 16 2.667C8.636 2.667 2.667 8.636 2.667 16S8.636 29.333 16 29.333 29.333 23.364 29.333 16c0-2.418-.644-4.687-1.769-6.641M21.3 10.7s-2.259 6.03-3.3 7.071a2.666 2.666 0 1 1-3.772-3.772c1.041-1.041 7.071-3.3 7.071-3.3z" style="stroke:var(--color1, #de3809)"/></symbol><symbol id="icon-spelling" viewBox="0 0 32 32"><path fill="#de3809" d="M8.558 12.313a.02.02 0 0 0-.017.01q-.452.79-1.104 1.224-.656.438-1.609.453-.625 0-1.141-.172c-.516-.172-.646-.292-.906-.531q-.39-.36-.578-.844c-.188-.484-.193-.708-.203-1.156q0-.703.203-1.219c.203-.516.333-.641.594-.891q.39-.375.922-.594c.532-.219.755-.255 1.203-.328l1.77-.26c.509-.075.901-.515.808-1.021q-.078-.422-.297-.75c-.219-.328-.333-.391-.563-.516q-.344-.188-.891-.203a4 4 0 0 0-1.861.441c-.434.219-1.03-.062-1.03-.548 0-.178.082-.349.237-.438q.174-.099.388-.189.375-.156.813-.266c.438-.11.573-.135.844-.188q.407-.078.734-.078.843 0 1.438.234c.595.234.719.391.969.703s.432.677.547 1.094Q10 6.905 10 7.717v5.336a.71.71 0 1 1-1.422 0v-.722a.02.02 0 0 0-.02-.02zm-2.402.421q.578 0 1.016-.219c.438-.219.547-.349.766-.609q.328-.39.469-.875c.141-.485.151-.667.172-1.031a.804.804 0 0 0-.927-.795l-1.214.186q-.437.078-.797.172c-.36.094-.448.156-.625.281s-.313.297-.406.516q-.141.328-.156.828 0 .75.5 1.141c.5.391.734.396 1.203.406zm7.286-.297a.02.02 0 0 0-.02.02v.644a.664.664 0 0 1-.664.664h-.047a.71.71 0 0 1-.711-.711V.71a.71.71 0 1 1 1.422 0v5.379q.002.018.02.02a.02.02 0 0 0 .017-.01q.514-.915 1.354-1.381a3.8 3.8 0 0 1 1.891-.469q.984 0 1.672.391c.688.391.833.609 1.125 1.047q.437.656.641 1.469c.204.813.203 1.104.203 1.687q0 .952-.219 1.875c-.219.923-.385 1.161-.719 1.641q-.5.719-1.25 1.187c-.75.468-1.12.464-1.859.453q-.891 0-1.641-.391a2.95 2.95 0 0 1-1.197-1.162.02.02 0 0 0-.017-.01zm-.02-3.765v1.297q0 .61.188 1.109c.188.499.312.625.562.875q.375.375.859.578c.484.203.693.203 1.109.203q.797 0 1.328-.359c.531-.359.635-.552.844-.938q.312-.578.437-1.25c.125-.672.13-.901.141-1.359q0-.609-.125-1.203c-.125-.594-.229-.75-.437-1.063q-.312-.47-.797-.75c-.485-.28-.719-.286-1.188-.297q-.703 0-1.25.234c-.547.234-.672.38-.922.672s-.437.625-.562 1a4 4 0 0 0-.188 1.25zm13.125-3.156q-.782 0-1.359.313c-.577.313-.708.484-.969.828q-.39.516-.578 1.187c-.188.671-.187.906-.187 1.375s.057.917.172 1.344q.172.64.547 1.125c.375.485.563.578.938.766q.563.28 1.359.281.594 0 1.141-.219l.064-.026c.423-.177.967.099.967.557a.51.51 0 0 1-.255.451 3.5 3.5 0 0 1-.902.346 6.2 6.2 0 0 1-1.266.156q-1.016 0-1.797-.359c-.781-.359-.958-.573-1.312-1q-.531-.64-.828-1.484c-.297-.844-.292-1.167-.281-1.813q0-1.078.297-2c.297-.922.49-1.156.875-1.625s.865-.828 1.438-1.078q.86-.375 2-.391.531 0 1.047.109.345.074.676.209a.54.54 0 0 1 .324.508v.022c0 .472-.555.762-1 .605a3.3 3.3 0 0 0-1.109-.188zm-13.975 21.65a2 2 0 0 0 2.826.002l9.195-9.169a.995.995 0 0 1 1.406 1.408L15.401 30.005a2 2 0 0 1-2.832-.003l-4.573-4.594a.996.996 0 0 1 1.41-1.406l3.165 3.165z" style="fill:var(--color1, #de3809)"/></symbol><symbol id="icon-text-recognition" viewBox="0 0 32 32"><path fill="none" stroke="#de3809" stroke-linecap="round" stroke-linejoin="round" stroke-width="2" d="M5.333 10.667V8A2.67 2.67 0 0 1 8 5.333h2.667m-5.334 16V24A2.67 2.67 0 0 0 8 26.667h2.667M21.333 5.333H24A2.67 2.67 0 0 1 26.667 8v2.667m-5.334 16H24A2.67 2.67 0 0 0 26.667 24v-2.667m-10.667 0V12m-4 0h8" style="stroke:var(--color1, #de3809)"/></symbol><symbol id="icon-visual-inspection" viewBox="0 0 32 32"><path fill="#de3809" d="m26 24.586-5.115-5.115a6 6 0 0 0 .96-4.843c-.497-2.208-2.278-3.99-4.488-4.478a6.02 6.02 0 0 0-7.126 4.2 6 6 0 0 0-.082 3.006c.487 2.21 2.27 3.992 4.478 4.489a6 6 0 0 0 4.843-.96l5.115 5.114 1.414-1.414zm-8.915-4.73a4.017 4.017 0 0 1-4.956-2.848 4.02 4.02 0 0 1 1.033-3.847 4.017 4.017 0 0 1 5.665.014 4.01 4.01 0 0 1 1.027 3.914 3.94 3.94 0 0 1-2.77 2.767zm11.981-3.499-.065-.17C27.01 10.948 21.423 7 16 7S4.99 10.948 3 16.183l-.067.173a1 1 0 1 1-1.868-.714l.066-.17C3.399 9.502 9.792 5.001 16 5.001s12.602 4.502 14.87 10.474l.064.168zM16 27C9.792 27 3.4 22.497 1.131 16.526l-.064-.166a1 1 0 0 1 1.866-.72l.066.171C4.99 21.051 10.58 25 16 25z" style="fill:var(--color1, #de3809)"/><path fill="#de3809" d="M26 24.586 27.414 26l1.414-1.414-1.414-1.414zm-5.115-5.115-1.628-1.162-.983 1.378 1.197 1.197 1.414-1.414zm.96-4.843-1.951.439.002.007.002.007zm-4.488-4.478-.447 1.949.008.002.008.002zm-7.207 7.207 1.953-.43-.004-.017zm4.478 4.489.453-1.948-.007-.002-.007-.002zm4.843-.96 1.414-1.414-1.197-1.197-1.378.983zM24.586 26l-1.414 1.414 1.414 1.414L26 27.414zm-7.501-6.144-.527-1.929-.008.002zm-4.94-4.944 1.927.536.002-.008zm2.77-2.768.527 1.929.008-.002zm4.94 4.945-1.927-.537-.002.009zm9.146-.902-1.87.71.001.004L29 16.187zM3 16.183l1.865.722.002-.006.002-.006zm-.067.173-1.865-.722-.003.007zm-1.868-.715-1.864-.724-.002.004-.002.004 1.868.715zm.066-.17 1.864.724.003-.007.003-.007zm29.739.003-1.87.71.001.002zM16 27v2h2v-2zM1.131 16.526l1.87-.71-.002-.004-.002-.005zm1.868-.715 1.87-.71-.004-.01zM16 25h2v-2h-2zm10-.414 1.414-1.414-5.115-5.115-2.828 2.828L24.586 26zm-5.115-5.115 1.628 1.162a8 8 0 0 0 1.335-3.091l-3.924-.778a4 4 0 0 1-.668 1.545zm1.001-2.318 1.962.389a8 8 0 0 0-.055-3.366l-3.896.905c.128.553.138 1.127.028 1.683zm-.041-2.525 1.951-.439c-.666-2.961-3.037-5.336-6.008-5.992l-.862 3.906c1.449.32 2.64 1.509 2.968 2.964zm-4.488-4.478.447-1.949a8 8 0 0 0-4.006.109l1.106 3.844a4 4 0 0 1 2.007-.055zm-3.007.082-.553-1.922a8 8 0 0 0-3.452 2.035l2.828 2.828a4 4 0 0 1 1.729-1.02l-.553-1.922zm-2.591 1.528-1.414-1.414a8 8 0 0 0-2.035 3.452l3.844 1.105a4 4 0 0 1 1.02-1.729zm-1.527 2.591-1.922-.553a8 8 0 0 0-.11 4.006l3.899-.894a4 4 0 0 1 .055-2.007zm-.082 3.006-1.953.43c.655 2.972 3.032 5.343 5.992 6.01l.878-3.902c-1.456-.328-2.645-1.52-2.964-2.968zm4.478 4.489-.453 1.948a8 8 0 0 0 3.366.055l-.778-3.924c-.557.11-1.13.101-1.683-.027zm2.525.041.389 1.962a8 8 0 0 0 3.091-1.335l-2.323-3.256a4 4 0 0 1-1.545.667l.389 1.962zm2.318-1.001L18.057 22.3l5.115 5.114L26 24.585l-5.115-5.114zM24.586 26 26 27.414 27.414 26l-2.828-2.828-1.414 1.414zm-7.501-6.144-.535-1.927a2 2 0 0 1-1.051.007l-1.019 3.868a6 6 0 0 0 3.14-.02l-.535-1.927zm-2.096.014.51-1.934a2 2 0 0 1-.912-.524l-2.83 2.827a6 6 0 0 0 2.722 1.565zm-1.817-1.045 1.415-1.414a2 2 0 0 1-.523-.912l-3.869 1.016c.271 1.03.81 1.97 1.563 2.723l1.415-1.414zm-1.043-1.817 1.934-.508a2 2 0 0 1 .008-1.051l-3.854-1.072a6 6 0 0 0-.023 3.14l1.934-.508zm.016-2.096 1.929.528c.089-.327.263-.625.502-.865l-2.827-2.829a5.94 5.94 0 0 0-1.533 2.638zm1.018-1.751 1.414 1.415c.24-.24.538-.413.865-.502l-1.053-3.859c-.998.272-1.908.8-2.639 1.531zm1.752-1.017.535 1.927a2 2 0 0 1 1.052-.007l1.019-3.868a6 6 0 0 0-3.14.02zm2.096-.014-.51 1.934c.345.091.66.272.912.524l2.83-2.827a6 6 0 0 0-2.722-1.565zm1.817 1.045-1.415 1.413c.252.252.433.567.523.912l3.869-1.015a6 6 0 0 0-1.562-2.724zm1.043 1.818-1.934.508c.091.345.088.708-.008 1.052l3.853 1.073a6 6 0 0 0 .024-3.14zm-.016 2.096-1.929-.528c-.09.327-.263.625-.502.865l2.827 2.829a5.94 5.94 0 0 0 1.533-2.638zm-1.018 1.751-1.414-1.415a1.96 1.96 0 0 1-.865.501l1.053 3.859a5.95 5.95 0 0 0 2.639-1.53l-1.414-1.415zm10.229-2.483 1.868-.714-.065-.17-3.736 1.429.065.17 1.868-.714zm-.065-.17 1.87-.71C28.598 9.496 22.29 5 16 5v4c4.556 0 9.422 3.4 11.131 7.897zM16 7V5C9.71 5 3.402 9.496 1.13 15.472l3.739 1.421C6.577 12.4 11.443 8.999 16 8.999zM3 16.183l-1.865-.722-.067.173 3.73 1.445.067-.173L3 16.184zm-.067.173-1.868-.715a1 1 0 0 1 .526-.556l1.63 3.653A3 3 0 0 0 4.8 17.071l-1.868-.715zm-.527.556-.815-1.826a1 1 0 0 1 .765-.021l-1.43 3.736a3 3 0 0 0 2.295-.062zm-.765.021.715-1.868a1 1 0 0 1 .556.526l-3.653 1.63A3 3 0 0 0 .926 18.8zm-.555-.527 1.826-.815a1 1 0 0 1 .021.765l-3.736-1.43a3 3 0 0 0 .062 2.295l1.826-.815zm-.021-.765 1.864.724.066-.17-3.729-1.448-.066.17zm.066-.17 1.87.71C4.985 10.958 10.654 7 16 7V3C8.93 3 1.813 8.044-.739 14.761zM16 5v2c5.346 0 11.016 3.959 13 9.184l3.739-1.42C30.187 8.045 23.069 3 15.999 3zm14.87 10.474-1.869.712.064.168 3.738-1.424-.064-.168zM16 27v-2c-5.346 0-11.014-3.96-12.999-9.184l-3.739 1.421c2.553 6.717 9.668 11.764 16.739 11.764v-2zM1.131 16.526l1.866-.719-.064-.166-3.732 1.439.064.166zm-.064-.166 1.866-.72a1 1 0 0 1-.019.765l-3.657-1.621a3 3 0 0 0-.056 2.295l1.866-.72zm.018-.765 1.828.81a1 1 0 0 1-.554.528l-1.44-3.732a3 3 0 0 0-1.663 1.583zm.555-.528.72 1.866a1 1 0 0 1-.765-.019l1.621-3.657a3 3 0 0 0-2.295-.056zm.765.019-.81 1.828a1 1 0 0 1-.528-.554l3.732-1.44a3 3 0 0 0-1.583-1.663zm.528.554-1.866.72.066.171 3.732-1.44-.066-.171zm.066.171-1.87.71C3.402 22.503 9.713 27 16 27v-4c-4.553 0-9.422-3.401-11.131-7.899zM16 25h-2v2h4v-2z" style="fill:var(--color1, #de3809)"/></symbol><symbol id="icon-vocabulary" viewBox="0 0 32 32"><path fill="none" stroke="#de3809" stroke-linecap="round" stroke-linejoin="round" stroke-width="2" d="M16 6.667A2.67 2.67 0 0 0 13.333 4h-8a1.335 1.335 0 0 0-1.334 1.334v18.667a1.335 1.335 0 0 0 1.334 1.334h8A2.67 2.67 0 0 1 16 28.002m0-21.335A2.67 2.67 0 0 1 18.667 4h8a1.335 1.335 0 0 1 1.334 1.334v18.667a1.335 1.335 0 0 1-1.334 1.334h-8A2.67 2.67 0 0 0 16 28.002m0-21.335V28M9.333 9.333h1.333m-1.333 5.334h1.333m10.667-5.334h1.333m-1.333 5.334h1.333M21.333 20h1.333" style="stroke:var(--color1, #de3809)"/></symbol><symbol id="icon-whole-word" viewBox="0 0 32 32"><path stroke-width="2" d="M1.087 27.584q.016.049.035.098-.019-.048-.035-.098m1.52 1.377q-.048-.01-.096-.024.047.014.096.024m26.881-.024q-.047.014-.096.024.048-.01.096-.024m-27.077-.026-.048-.018zm27.225-.017-.048.018zM1.171 27.805l-.015-.031zm29.672-.031-.014.031zm-8.27-14.739c-1.121.163-2.199.946-2.861 2.117l-.006.01-.005.01a5.9 5.9 0 0 0-.673 2.248l-.021.338a5 5 0 0 0-.005.265l.004.214.001.01v.011c.038.947.285 1.833.698 2.583l.005.009c.706 1.25 1.889 2.067 3.096 2.148h.002q.195.012.39 0h.001c.975-.065 1.936-.611 2.641-1.479-.751.937-1.783 1.488-2.84 1.488-.851 0-1.656-.335-2.33-.943L19 20.558v-5.103l1.67-1.506c.56-.505 1.211-.821 1.903-.913zm3.376 8.342-.09.119q.047-.059.09-.119m.727-1.39-.065.178q.034-.088.065-.178m.098-.315q-.029.103-.061.203.033-.1.061-.203m.183-.933-.015.124zm-13.982-3.573q.015.136.022.279l.001.09a5 5 0 0 0-.023-.37zm12.783-.774.014.017zm-.257-.277c-.532-.524-1.167-.884-1.828-1.034.665.147 1.297.505 1.828 1.034m-13.231-.709.033.038q-.016-.02-.033-.038m11.241-.356q.054.009.107.02zm-.909-.019.113-.012q-.057.005-.113.012m-16.022-.18.012-.007zm.131-.069.031-.015zm1.01-.332.014-.003zm1.945-.111h.002l-.059-.003zm-1.335.023.043-.004zm.22-.018.059-.004zm.251-.013.022-.001zm4.196 4.684-1.128-.34-.216-.059a9 9 0 0 0-3.319-.228h-.004c-.967.118-1.813.449-2.425 1.051-.579.57-.864 1.302-.904 2.088.031-.844.334-1.542.839-2.067.538-.561 1.365-.984 2.49-1.12l-.001-.001a9 9 0 0 1 3.407.253l1.262.342v4.209l-.628.359.187-.127.438-.298v-4.061zm17.914 10.569q-.016.05-.035.098.019-.049.035-.098M12.956 15.006l.014.113zm12.561-.875"/></symbol><symbol id="icon-anchor" viewBox="0 0 32 32"><path fill="none" stroke="#f25022" stroke-linecap="round" stroke-linejoin="round" stroke-width="2.667" d="M28 25.333C28 18.706 22.627 12 16 12m0 0C9.373 12 4 18.706 4 25.333M16 12a2.667 2.667 0 0 0 2.667-2.667M16 12a2.667 2.667 0 0 1-2.667-2.667m0 0H6.666m6.667 0a2.667 2.667 0 1 1 5.334 0m-12 0a2 2 0 1 1-3.999.001 2 2 0 0 1 3.999-.001m18.666 0h-6.667m6.667 0a2 2 0 1 0 3.999.001 2 2 0 0 0-3.999-.001" style="stroke:var(--color8, #f25022)"/></symbol></defs></svg>