<svg xmlns="http://www.w3.org/2000/svg" aria-hidden="true" style="position:absolute;width:0;height:0;overflow:hidden"><defs><symbol id="icon-aiming" viewBox="0 0 32 32"><path fill="none" stroke="#de3809" stroke-linecap="square" stroke-width="2" d="M23.408 16a7.42 7.42 0 0 1-2.134 5.302 7.4 7.4 0 0 1-8.131 1.632A7.41 7.41 0 0 1 8.594 16m14.814 0a7.41 7.41 0 0 0-12.596-5.147A7.4 7.4 0 0 0 8.594 16m14.814 0A7.407 7.407 0 0 1 16 23.406M23.408 16a7.4 7.4 0 0 0-2.17-5.238A7.4 7.4 0 0 0 16 8.592M23.408 16h1.48M8.593 16A7.407 7.407 0 0 0 16 23.407M8.593 16a7.41 7.41 0 0 1 7.406-7.408M8.593 16H7.11M16 23.407v1.481m0-16.296V7.111M29.333 16c0 7.364-5.969 13.333-13.333 13.333S2.667 23.364 2.667 16 8.636 2.667 16 2.667 29.333 8.636 29.333 16zm-11.852 0a1.47 1.47 0 0 1-.434 1.048 1.49 1.49 0 0 1-1.615.321 1.5 1.5 0 0 1-.802-.802 1.478 1.478 0 0 1 1.368-2.048A1.48 1.48 0 0 1 17.479 16z" style="stroke:var(--color1, #de3809)"/></symbol><symbol id="icon-arrow-back" viewBox="0 0 32 32"><path stroke-linecap="round" stroke-linejoin="round" stroke-width="1.333" d="M21.333 26 10.666 16 21.333 6"/></symbol><symbol id="icon-auto-focus" viewBox="0 0 32 32"><path fill="#de3809" d="M5.162 8.787A1 1 0 0 0 6.837 9.88zm21.839 7.508a1 1 0 0 0 1.999.077zm-.123 6.85a1 1 0 0 0-1.756-.958zM5 16a1 1 0 0 0-2 0zM29 5.333a1 1 0 0 0-2 0zM27 16a1 1 0 0 0 2 0zM3 26.667a1 1 0 0 0 2 0zM22 16h-1a5 5 0 0 1-5 5v2a7 7 0 0 0 7-7zm-6 6v-1a5 5 0 0 1-5-5H9a7 7 0 0 0 7 7zm-6-6h1a5 5 0 0 1 5-5V9a7 7 0 0 0-7 7zm6-6v1a5 5 0 0 1 5 5h2a7 7 0 0 0-7-7zm-2 6h-1a3 3 0 0 0 3 3v-2a1 1 0 0 1-1-1zm2 2v1a3 3 0 0 0 3-3h-2a1 1 0 0 1-1 1zm2-2h1a3 3 0 0 0-3-3v2a1 1 0 0 1 1 1zm-2-2v-1a3 3 0 0 0-3 3h2a1 1 0 0 1 1-1zM6 9.333c.838.546.837.547.837.547v.002l.001-.001.007-.01.034-.05q.048-.07.152-.209a13 13 0 0 1 3.104-2.903c2.137-1.412 5.231-2.473 9.205-1.098l.654-1.89c-4.693-1.624-8.432-.352-10.962 1.319a15 15 0 0 0-3.599 3.367q-.126.17-.195.267l-.053.077-.015.023-.005.007-.002.003-.001.001s-.001.001.837.547zm13.667-4.666-.327.945c4.004 1.386 5.898 4.052 6.813 6.38a12.6 12.6 0 0 1 .771 3.061 11 11 0 0 1 .078 1.178l-.001.056v.011-.002l.999.038c.999.039.999.038.999.037v-.013l.001-.027.001-.09q.001-.115-.005-.317a13 13 0 0 0-.087-1.111 14.6 14.6 0 0 0-.896-3.553c-1.084-2.756-3.357-5.923-8.02-7.537l-.327.945zm6.333 18c-.878-.479-.878-.479-.877-.48s0 0 0-.001v-.001l-.004.008-.026.045a9 9 0 0 1-.642.917 11 11 0 0 1-2.163 2.077c-1.919 1.392-4.866 2.548-9.037 1.466l-.502 1.936c4.829 1.252 8.382-.092 10.713-1.784a13 13 0 0 0 2.556-2.454c.28-.353.489-.657.632-.876q.106-.166.163-.263l.045-.077.013-.023.004-.008.002-.003.001-.001s.001-.001-.877-.48zm-13 5 .251-.968c-4.132-1.071-6.173-3.722-7.207-6.134a13.5 13.5 0 0 1-1.029-4.226 8 8 0 0 1-.014-.265l-.002-.062v-.013.002l-1 .001-1 .001v.041l.002.095q.003.12.017.336c.019.285.057.687.132 1.174.15.972.45 2.297 1.054 3.705 1.216 2.837 3.675 6.02 8.543 7.282l.251-.968zM28 5.333h-1V16h2V5.333zM4 16H3v10.667h2V16z" style="fill:var(--color1, #de3809)"/></symbol><symbol id="icon-brain-cognitive" viewBox="0 0 32 32"><path fill="none" stroke="#de3809" stroke-linecap="round" stroke-linejoin="round" stroke-width="2" d="M21.714 30.857v-5.714h4.571a2.287 2.287 0 0 0 2.285-2.285v-9.143a12.56 12.56 0 0 0-6.428-10.966A12.573 12.573 0 0 0 3.437 14.206a12.57 12.57 0 0 0 6.848 10.709v5.943M12.571 7.57a7.43 7.43 0 0 0-3.282 8.914c.274.766 1.097 1.15 1.883.942 3.97-1.051 8.011-3.897 10.469-6.114.651-.587.784-1.57.206-2.229a7.43 7.43 0 0 0-9.275-1.513z" style="stroke:var(--color1, #de3809)"/></symbol><symbol id="icon-chevron" viewBox="0 0 32 32"><path fill="#de3809" d="M4.353 8.427c.111-.135.244-.243.39-.316S5.045 8 5.203 8q.239 0 .46.111c.221.111.278.181.39.316l9.177 11.125a1 1 0 0 0 1.543 0l9.178-11.125c.225-.273.531-.426.849-.426s.624.153.849.426.352.643.352 1.029-.127.756-.352 1.03L16.851 23.573c-.111.135-.244.243-.39.316s-.302.111-.46.111-.314-.038-.46-.111a1.2 1.2 0 0 1-.39-.316L4.353 10.486c-.112-.135-.2-.296-.261-.472S4 9.648 4 9.457s.031-.381.092-.557.149-.337.261-.472z" style="fill:var(--color1, #de3809)"/></symbol><symbol id="icon-close" viewBox="0 0 32 32"><path fill="none" stroke="#fafafa" stroke-linecap="round" stroke-linejoin="round" stroke-width="1.333" d="m7 7 9 9m0 0-9 9m9-9 9 9m-9-9 9-9" style="stroke:var(--color2, #fafafa)"/></symbol><symbol id="icon-creative" viewBox="0 0 32 32"><path fill="none" stroke="#de3809" stroke-linecap="round" stroke-linejoin="round" stroke-width="2" d="M12.211 8.421h7.579M28 26V6a2 2 0 0 0-2-2H6a2 2 0 0 0-2 2v20a2 2 0 0 0 2 2h20a2 2 0 0 0 2-2M16 12.211l-1.931 3.94-4.385.636 3.177 3.105-.759 4.319 3.899-2.078 3.899 2.078-.753-4.319 3.171-3.105-4.361-.636z" style="stroke:var(--color1, #de3809)"/></symbol><symbol id="icon-email" viewBox="0 0 32 32"><path fill="#de3809" d="M29.333 8c0-1.467-1.2-2.667-2.667-2.667H5.333A2.675 2.675 0 0 0 2.666 8v16c0 1.467 1.2 2.667 2.667 2.667h21.333c1.467 0 2.667-1.2 2.667-2.667zm-2.666 0L16 14.667 5.333 8h21.333zm0 16H5.334V10.667l10.667 6.667 10.667-6.667z" style="fill:var(--color1, #de3809)"/></symbol><symbol id="icon-focus" viewBox="0 0 32 32"><path fill="none" stroke="#de3809" stroke-linecap="square" stroke-width="2" d="M25.333 16a9.34 9.34 0 0 1-2.733 6.6m2.733-6.6a9.333 9.333 0 0 0-9.334-9.334M25.333 16a9.33 9.33 0 0 1-2.734 6.6m2.734-6.6h4M22.6 22.6a9.34 9.34 0 0 1-6.6 2.733m6.6-2.733a9.33 9.33 0 0 1-6.6 2.734m0-.001A9.34 9.34 0 0 1 9.4 22.6m6.6 2.733a9.33 9.33 0 0 1-6.6-2.734m6.6 2.734v4M9.4 22.6A9.34 9.34 0 0 1 6.667 16M9.4 22.6A9.33 9.33 0 0 1 6.666 16m.001 0a9.333 9.333 0 0 1 9.334-9.334M6.667 16h-4M16 6.667v-4M17.333 16a1.335 1.335 0 0 1-2.277.943 1.335 1.335 0 0 1 0-1.886 1.335 1.335 0 0 1 1.886 0c.25.251.391.589.391.943z" style="stroke:var(--color1, #de3809)"/></symbol><symbol id="icon-intuition" viewBox="0 0 32 32"><path fill="none" stroke="#de3809" stroke-linecap="round" stroke-linejoin="round" stroke-width="2" d="M30.333 16c0 7.916-6.417 14.333-14.333 14.333S1.667 23.916 1.667 16m28.666 0c0-7.916-6.417-14.333-14.333-14.333S1.667 8.084 1.667 16m28.666 0h-10.75M1.667 16h10.75m7.166 0a3.583 3.583 0 1 1-7.166 0m7.166 0a3.583 3.583 0 1 0-7.166 0" style="stroke:var(--color1, #de3809)"/></symbol><symbol id="icon-logical-partition" viewBox="0 0 48 48" fill="none">
  <path d="M13.5 12C14.3284 12 15 11.3284 15 10.5C15 9.67157 14.3284 9 13.5 9C12.6716 9 12 9.67157 12 10.5C12 11.3284 12.6716 12 13.5 12Z" fill="#0E1F34" />
  <path d="M9 3.75H39C39.5967 3.75 40.1689 3.98722 40.5908 4.40918C41.0128 4.83114 41.25 5.40326 41.25 6V15C41.25 15.5967 41.0128 16.1689 40.5908 16.5908C40.1689 17.0128 39.5967 17.25 39 17.25H24.75V24.75H37.5C38.0967 24.75 38.6689 24.9872 39.0908 25.4092C39.5128 25.8311 39.75 26.4033 39.75 27V33.75H42C42.5967 33.75 43.1689 33.9872 43.5908 34.4092C44.0128 34.8311 44.25 35.4033 44.25 36V42C44.25 42.5967 44.0128 43.1689 43.5908 43.5908C43.1689 44.0128 42.5967 44.25 42 44.25H36C35.4033 44.25 34.8311 44.0128 34.4092 43.5908C33.9872 43.1689 33.75 42.5967 33.75 42V36C33.75 35.4033 33.9872 34.8311 34.4092 34.4092C34.8311 33.9872 35.4033 33.75 36 33.75H38.25V26.25H24.75V33.75H27C27.5967 33.75 28.1689 33.9872 28.5908 34.4092C29.0128 34.8311 29.25 35.4033 29.25 36V42C29.25 42.5967 29.0128 43.1689 28.5908 43.5908C28.1689 44.0128 27.5967 44.25 27 44.25H21C20.4033 44.25 19.8311 44.0128 19.4092 43.5908C18.9872 43.1689 18.75 42.5967 18.75 42V36C18.75 35.4033 18.9872 34.8311 19.4092 34.4092C19.8311 33.9872 20.4033 33.75 21 33.75H23.25V26.25H9.75V33.75H12C12.5967 33.75 13.1689 33.9872 13.5908 34.4092C14.0128 34.8311 14.25 35.4033 14.25 36V42C14.25 42.5967 14.0128 43.1689 13.5908 43.5908C13.1689 44.0128 12.5967 44.25 12 44.25H6C5.40326 44.25 4.83114 44.0128 4.40918 43.5908C3.98722 43.1689 3.75 42.5967 3.75 42V36C3.75 35.4033 3.98722 34.8311 4.40918 34.4092C4.83114 33.9872 5.40326 33.75 6 33.75H8.25V27C8.25 26.4033 8.48722 25.8311 8.90918 25.4092C9.33114 24.9872 9.90326 24.75 10.5 24.75H23.25V17.25H9C8.40326 17.25 7.83114 17.0128 7.40918 16.5908C6.98722 16.1689 6.75 15.5967 6.75 15V6C6.75 5.40326 6.98722 4.83114 7.40918 4.40918C7.83114 3.98722 8.40326 3.75 9 3.75ZM5.25 42.75H12.75V35.25H5.25V42.75ZM20.25 42.75H27.75V35.25H20.25V42.75ZM35.25 42.75H42.75V35.25H35.25V42.75ZM8.25 15.75H39.75V5.25H8.25V15.75Z" fill="#0E1F34" stroke="#DE3809" stroke-width="1.5" />
</symbol><symbol id="icon-logic-nand" viewBox="0 0 32 32"><path fill="none" stroke="#de3809" stroke-linecap="round" stroke-linejoin="round" stroke-width="2" d="M29.333 16h-4m0 0a2.668 2.668 0 0 1-5.334 0m5.334 0a2.668 2.668 0 0 0-5.334 0M2.667 12h4m-4 8h4M20 16c0-4.667-2.667-9.333-10.667-9.333H6.666v18.667h2.667c8 0 10.667-4.667 10.667-9.333z" style="stroke:var(--color1, #de3809)"/></symbol><symbol id="icon-menu" viewBox="0 0 32 32"><path fill="none" stroke="#fafafa" stroke-linecap="round" stroke-width="1.333" d="M6.667 8h18.667M6.667 24h18.667M6.667 16h18.667" style="stroke:var(--color2, #fafafa)"/></symbol><symbol id="icon-patience" viewBox="0 0 32 32"><path fill="#de3809" d="M12 16.333a1 1 0 0 0 0 2zm2.664 1.2-.51.86.004.002.506-.863zm.901 1.275-.886.463.001.001zm2.023 3.859-.886.464a1 1 0 0 0 1.83-.135zm2.793-8 .886-.464a1 1 0 0 0-1.83.135zm2.923 5.134-.509.861.001.001zM26.667 21a1 1 0 0 0 0-2zm-.311-4.791a1 1 0 1 0 1.955-.419zM19.365 3.963l-.689.725.004.004zm-6.485 0 .685.729.004-.004zm13.898 20.56a1 1 0 1 0-1.705-1.045zM12 17.333v1h1.067v-2H12zm1.067 0v1c.44 0 .697.001.889.02a1 1 0 0 1 .164.027c.024.007.032.012.035.013l1.02-1.72a2.4 2.4 0 0 0-1.022-.31c-.313-.031-.686-.03-1.086-.03zm1.597.2-.506.863c.003.002.009.005.022.018.016.016.045.05.089.117.1.149.213.363.41.74l1.773-.926c-.178-.34-.346-.665-.519-.924a2.34 2.34 0 0 0-.763-.751zm.901 1.275-.886.464 2.023 3.859 1.771-.929-2.023-3.859zm2.023 3.859.944.33 2.793-8-1.888-.659-2.793 8zm2.793-8-.886.464 2.021 3.859 1.772-.928-2.021-3.859zm2.022 3.858-.886.464c.178.339.346.664.518.922.186.28.418.549.761.751l1.017-1.722c-.003-.002-.009-.005-.023-.019a1 1 0 0 1-.09-.118 9 9 0 0 1-.411-.742zm.901 1.276-.507.862c.339.2.686.275 1.02.307.312.031.685.03 1.085.03v-2c-.44 0-.697-.001-.889-.02a1 1 0 0 1-.165-.027c-.024-.007-.033-.012-.036-.013zm1.597.199v1h1.765v-2h-1.765zm2.432-4 .978-.209c-1.094-5.105-5.315-9.789-8.261-12.557l-1.369 1.458c2.921 2.744 6.721 7.063 7.675 11.518l.978-.209zM19.365 3.963l.689-.725a5.7 5.7 0 0 0-3.932-1.57v2c.951 0 1.865.365 2.554 1.02zm-3.242-1.296v-1a5.7 5.7 0 0 0-3.932 1.57l1.378 1.45a3.7 3.7 0 0 1 2.554-1.02zM12.88 3.963l-.685-.729c-1.724 1.621-3.838 3.855-5.527 6.418-1.681 2.551-3.002 5.518-3.002 8.586h2c0-2.511 1.093-5.089 2.672-7.485 1.571-2.384 3.564-4.498 5.227-6.061zM4.667 18.237h-1c0 5.967 4.733 12.096 12.456 12.096v-2c-6.512 0-10.456-5.124-10.456-10.096zm11.456 11.096v1c4.89 0 8.606-2.469 10.655-5.811l-1.705-1.046c-1.705 2.781-4.792 4.856-8.95 4.856z" style="fill:var(--color1, #de3809)"/></symbol><symbol id="icon-pattern" viewBox="0 0 48 48" fill="none">
  <mask id="path-1-inside-1_10006_508" fill="white">
    <path d="M12.0001 38.4601C11.3108 38.4601 10.7281 38.2228 10.2521 37.7481C9.77609 37.2734 9.53809 36.6908 9.53809 36.0001C9.53809 35.3094 9.77609 34.7268 10.2521 34.2521C10.7281 33.7774 11.3108 33.5394 12.0001 33.5381C12.1668 33.5381 12.3141 33.5514 12.4421 33.5781C12.5701 33.6034 12.7048 33.6494 12.8461 33.7161L21.7161 24.8461C21.5494 24.4021 21.5128 23.9474 21.6061 23.4821C21.6994 23.0168 21.9194 22.6114 22.2661 22.2661C22.6128 21.9208 23.0181 21.7008 23.4821 21.6061C23.9488 21.5128 24.4034 21.5494 24.8461 21.7161L33.7161 12.8461L33.5961 12.4421C33.5574 12.3141 33.5381 12.1668 33.5381 12.0001C33.5381 11.3108 33.7761 10.7281 34.2521 10.2521C34.7281 9.77609 35.3108 9.53809 36.0001 9.53809C36.6894 9.53809 37.2721 9.77609 37.7481 10.2521C38.2241 10.7281 38.4621 11.3108 38.4621 12.0001C38.4621 12.6894 38.2241 13.2721 37.7481 13.7481C37.2721 14.2241 36.6894 14.4621 36.0001 14.4621C35.5894 14.4621 35.3074 14.4028 35.1541 14.2841L26.2841 23.1441C26.4508 23.5868 26.4874 24.0428 26.3941 24.5121C26.3008 24.9814 26.0808 25.3888 25.7341 25.7341C25.3808 26.0888 24.9714 26.3128 24.5061 26.4061C24.0394 26.4994 23.5848 26.4594 23.1421 26.2861L14.4921 34.9201L14.5701 34.9981H21.7541C21.9674 34.5528 22.2714 34.1974 22.6661 33.9321C23.0608 33.6681 23.5054 33.5361 24.0001 33.5361C24.5028 33.5361 24.9601 33.6668 25.3721 33.9281C25.7828 34.1881 26.0821 34.5448 26.2701 34.9981H33.7301C33.9434 34.5448 34.2494 34.1874 34.6481 33.9261C35.0468 33.6661 35.4974 33.5361 36.0001 33.5361C36.6894 33.5361 37.2721 33.7741 37.7481 34.2501C38.2241 34.7261 38.4621 35.3088 38.4621 35.9981C38.4621 36.6874 38.2241 37.2701 37.7481 37.7461C37.2721 38.2221 36.6894 38.4601 36.0001 38.4601C35.4974 38.4601 35.0468 38.3281 34.6481 38.0641C34.2494 37.8001 33.9434 37.4448 33.7301 36.9981H26.2701C26.0834 37.4514 25.7834 37.8088 25.3701 38.0701C24.9594 38.3301 24.5028 38.4601 24.0001 38.4601C23.5054 38.4601 23.0608 38.3281 22.6661 38.0641C22.2714 37.7988 21.9674 37.4434 21.7541 36.9981H14.2461C14.0594 37.4448 13.7621 37.8001 13.3541 38.0641C12.9461 38.3281 12.4948 38.4601 12.0001 38.4601ZM12.0001 26.4601C11.3108 26.4601 10.7281 26.2221 10.2521 25.7461C9.77609 25.2701 9.53809 24.6881 9.53809 24.0001C9.53809 23.3121 9.77609 22.7294 10.2521 22.2521C10.7281 21.7748 11.3108 21.5368 12.0001 21.5381C12.6894 21.5394 13.2721 21.7774 13.7481 22.2521C14.2241 22.7268 14.4621 23.3094 14.4621 24.0001C14.4621 24.6908 14.2241 25.2734 13.7481 25.7481C13.2721 26.2228 12.6894 26.4608 12.0001 26.4621M12.0001 14.4621C11.3108 14.4621 10.7281 14.2241 10.2521 13.7481C9.77609 13.2721 9.53809 12.6894 9.53809 12.0001C9.53809 11.3108 9.77609 10.7281 10.2521 10.2521C10.7281 9.77609 11.3108 9.53809 12.0001 9.53809C12.6894 9.53809 13.2721 9.77609 13.7481 10.2521C14.2241 10.7281 14.4621 11.3108 14.4621 12.0001C14.4621 12.6894 14.2241 13.2721 13.7481 13.7481C13.2721 14.2241 12.6894 14.4621 12.0001 14.4621ZM22.2521 13.7481C21.7761 13.2721 21.5381 12.6894 21.5381 12.0001C21.5381 11.3108 21.7761 10.7281 22.2521 10.2521C22.7281 9.77609 23.3108 9.53809 24.0001 9.53809C24.6894 9.53809 25.2721 9.77609 25.7481 10.2521C26.2241 10.7281 26.4621 11.3108 26.4621 12.0001C26.4621 12.6894 26.2241 13.2721 25.7481 13.7481C25.2721 14.2241 24.6894 14.4621 24.0001 14.4621C23.3108 14.4621 22.7281 14.2241 22.2521 13.7481ZM36.0001 26.4621C35.3108 26.4621 34.7281 26.2241 34.2521 25.7481C33.7761 25.2721 33.5381 24.6894 33.5381 24.0001C33.5381 23.3108 33.7761 22.7281 34.2521 22.2521C34.7281 21.7761 35.3108 21.5381 36.0001 21.5381C36.6894 21.5381 37.2721 21.7761 37.7481 22.2521C38.2241 22.7281 38.4621 23.3108 38.4621 24.0001C38.4621 24.6894 38.2241 25.2721 37.7481 25.7481C37.2721 26.2241 36.6894 26.4621 36.0001 26.4621Z" />
  </mask>
  <path d="M12.0001 38.4601C11.3108 38.4601 10.7281 38.2228 10.2521 37.7481C9.77609 37.2734 9.53809 36.6908 9.53809 36.0001C9.53809 35.3094 9.77609 34.7268 10.2521 34.2521C10.7281 33.7774 11.3108 33.5394 12.0001 33.5381C12.1668 33.5381 12.3141 33.5514 12.4421 33.5781C12.5701 33.6034 12.7048 33.6494 12.8461 33.7161L21.7161 24.8461C21.5494 24.4021 21.5128 23.9474 21.6061 23.4821C21.6994 23.0168 21.9194 22.6114 22.2661 22.2661C22.6128 21.9208 23.0181 21.7008 23.4821 21.6061C23.9488 21.5128 24.4034 21.5494 24.8461 21.7161L33.7161 12.8461L33.5961 12.4421C33.5574 12.3141 33.5381 12.1668 33.5381 12.0001C33.5381 11.3108 33.7761 10.7281 34.2521 10.2521C34.7281 9.77609 35.3108 9.53809 36.0001 9.53809C36.6894 9.53809 37.2721 9.77609 37.7481 10.2521C38.2241 10.7281 38.4621 11.3108 38.4621 12.0001C38.4621 12.6894 38.2241 13.2721 37.7481 13.7481C37.2721 14.2241 36.6894 14.4621 36.0001 14.4621C35.5894 14.4621 35.3074 14.4028 35.1541 14.2841L26.2841 23.1441C26.4508 23.5868 26.4874 24.0428 26.3941 24.5121C26.3008 24.9814 26.0808 25.3888 25.7341 25.7341C25.3808 26.0888 24.9714 26.3128 24.5061 26.4061C24.0394 26.4994 23.5848 26.4594 23.1421 26.2861L14.4921 34.9201L14.5701 34.9981H21.7541C21.9674 34.5528 22.2714 34.1974 22.6661 33.9321C23.0608 33.6681 23.5054 33.5361 24.0001 33.5361C24.5028 33.5361 24.9601 33.6668 25.3721 33.9281C25.7828 34.1881 26.0821 34.5448 26.2701 34.9981H33.7301C33.9434 34.5448 34.2494 34.1874 34.6481 33.9261C35.0468 33.6661 35.4974 33.5361 36.0001 33.5361C36.6894 33.5361 37.2721 33.7741 37.7481 34.2501C38.2241 34.7261 38.4621 35.3088 38.4621 35.9981C38.4621 36.6874 38.2241 37.2701 37.7481 37.7461C37.2721 38.2221 36.6894 38.4601 36.0001 38.4601C35.4974 38.4601 35.0468 38.3281 34.6481 38.0641C34.2494 37.8001 33.9434 37.4448 33.7301 36.9981H26.2701C26.0834 37.4514 25.7834 37.8088 25.3701 38.0701C24.9594 38.3301 24.5028 38.4601 24.0001 38.4601C23.5054 38.4601 23.0608 38.3281 22.6661 38.0641C22.2714 37.7988 21.9674 37.4434 21.7541 36.9981H14.2461C14.0594 37.4448 13.7621 37.8001 13.3541 38.0641C12.9461 38.3281 12.4948 38.4601 12.0001 38.4601ZM12.0001 26.4601C11.3108 26.4601 10.7281 26.2221 10.2521 25.7461C9.77609 25.2701 9.53809 24.6881 9.53809 24.0001C9.53809 23.3121 9.77609 22.7294 10.2521 22.2521C10.7281 21.7748 11.3108 21.5368 12.0001 21.5381C12.6894 21.5394 13.2721 21.7774 13.7481 22.2521C14.2241 22.7268 14.4621 23.3094 14.4621 24.0001C14.4621 24.6908 14.2241 25.2734 13.7481 25.7481C13.2721 26.2228 12.6894 26.4608 12.0001 26.4621M12.0001 14.4621C11.3108 14.4621 10.7281 14.2241 10.2521 13.7481C9.77609 13.2721 9.53809 12.6894 9.53809 12.0001C9.53809 11.3108 9.77609 10.7281 10.2521 10.2521C10.7281 9.77609 11.3108 9.53809 12.0001 9.53809C12.6894 9.53809 13.2721 9.77609 13.7481 10.2521C14.2241 10.7281 14.4621 11.3108 14.4621 12.0001C14.4621 12.6894 14.2241 13.2721 13.7481 13.7481C13.2721 14.2241 12.6894 14.4621 12.0001 14.4621ZM22.2521 13.7481C21.7761 13.2721 21.5381 12.6894 21.5381 12.0001C21.5381 11.3108 21.7761 10.7281 22.2521 10.2521C22.7281 9.77609 23.3108 9.53809 24.0001 9.53809C24.6894 9.53809 25.2721 9.77609 25.7481 10.2521C26.2241 10.7281 26.4621 11.3108 26.4621 12.0001C26.4621 12.6894 26.2241 13.2721 25.7481 13.7481C25.2721 14.2241 24.6894 14.4621 24.0001 14.4621C23.3108 14.4621 22.7281 14.2241 22.2521 13.7481ZM36.0001 26.4621C35.3108 26.4621 34.7281 26.2241 34.2521 25.7481C33.7761 25.2721 33.5381 24.6894 33.5381 24.0001C33.5381 23.3108 33.7761 22.7281 34.2521 22.2521C34.7281 21.7761 35.3108 21.5381 36.0001 21.5381C36.6894 21.5381 37.2721 21.7761 37.7481 22.2521C38.2241 22.7281 38.4621 23.3108 38.4621 24.0001C38.4621 24.6894 38.2241 25.2721 37.7481 25.7481C37.2721 26.2241 36.6894 26.4621 36.0001 26.4621Z" fill="#0E1F34" />
  <path d="M12.0001 38.4601V40.4601V38.4601ZM12.0001 33.5381V31.5381L11.9962 31.5381L12.0001 33.5381ZM12.4421 33.5781L12.0342 35.536L12.044 35.5381L12.0538 35.54L12.4421 33.5781ZM12.8461 33.7161L11.9928 35.5249L13.2654 36.1252L14.2603 35.1303L12.8461 33.7161ZM21.7161 24.8461L23.1303 26.2603L24.0413 25.3493L23.5885 24.1432L21.7161 24.8461ZM23.4821 21.6061L23.0899 19.6449L23.0823 19.6465L23.4821 21.6061ZM24.8461 21.7161L24.1414 23.5878L25.3483 24.0423L26.2603 23.1303L24.8461 21.7161ZM33.7161 12.8461L35.1303 14.2603L35.9724 13.4182L35.6333 12.2766L33.7161 12.8461ZM33.5961 12.4421L35.5133 11.8726L35.5106 11.8637L33.5961 12.4421ZM36.0001 14.4621V12.4621V14.4621ZM35.1541 14.2841L36.3782 12.7024L34.9861 11.6251L33.7407 12.8691L35.1541 14.2841ZM26.2841 23.1441L24.8707 21.7291L23.9576 22.6411L24.4124 23.8488L26.2841 23.1441ZM25.7341 25.7341L24.3226 24.3171L24.3172 24.3225L25.7341 25.7341ZM24.5061 26.4061L24.8983 28.3672L24.8994 28.367L24.5061 26.4061ZM23.1421 26.2861L23.8713 24.4238L22.6543 23.9472L21.7292 24.8706L23.1421 26.2861ZM14.4921 34.9201L13.0792 33.5046L11.6624 34.9187L13.0778 36.3343L14.4921 34.9201ZM14.5701 34.9981L13.1558 36.4123L13.7416 36.9981H14.5701V34.9981ZM21.7541 34.9981V36.9981H23.0136L23.5578 35.8621L21.7541 34.9981ZM22.6661 33.9321L21.5541 32.2697L21.5502 32.2723L22.6661 33.9321ZM25.3721 33.9281L24.3008 35.617L24.3022 35.6179L25.3721 33.9281ZM26.2701 34.9981L24.4226 35.7642L24.9343 36.9981H26.2701V34.9981ZM33.7301 34.9981V36.9981H34.9993L35.5397 35.8497L33.7301 34.9981ZM34.6481 33.9261L33.5555 32.2509L33.5516 32.2534L34.6481 33.9261ZM33.7301 36.9981L35.5348 36.1361L34.9913 34.9981H33.7301V36.9981ZM26.2701 36.9981V34.9981H24.9307L24.4207 36.2366L26.2701 36.9981ZM25.3701 38.0701L24.3013 36.3796L24.3002 36.3803L25.3701 38.0701ZM22.6661 38.0641L21.5502 39.7239L21.5541 39.7265L22.6661 38.0641ZM21.7541 36.9981L23.5578 36.134L23.0136 34.9981H21.7541V36.9981ZM14.2461 36.9981V34.9981H12.9143L12.4007 36.2269L14.2461 36.9981ZM12.0001 38.4601V36.4601C11.8251 36.4601 11.7549 36.4222 11.6643 36.3319L10.2521 37.7481L8.83986 39.1643C9.70132 40.0233 10.7964 40.4601 12.0001 40.4601V38.4601ZM10.2521 37.7481L11.6643 36.3319C11.576 36.2438 11.5381 36.1757 11.5381 36.0001H9.53809H7.53809C7.53809 37.2058 7.97616 38.303 8.83986 39.1643L10.2521 37.7481ZM9.53809 36.0001H11.5381C11.5381 35.8245 11.576 35.7563 11.6643 35.6683L10.2521 34.2521L8.83986 32.8359C7.97616 33.6972 7.53809 34.7943 7.53809 36.0001H9.53809ZM10.2521 34.2521L11.6643 35.6683C11.7558 35.577 11.8277 35.5384 12.004 35.5381L12.0001 33.5381L11.9962 31.5381C10.7938 31.5404 9.70033 31.9778 8.83986 32.8359L10.2521 34.2521ZM12.0001 33.5381V35.5381C12.0306 35.5381 12.0485 35.5393 12.0553 35.5399C12.0623 35.5406 12.0544 35.5402 12.0342 35.536L12.4421 33.5781L12.85 31.6201C12.5571 31.5591 12.2684 31.5381 12.0001 31.5381V33.5381ZM12.4421 33.5781L12.0538 35.54C11.9932 35.528 11.9715 35.5149 11.9928 35.5249L12.8461 33.7161L13.6993 31.9072C13.438 31.784 13.147 31.6788 12.8304 31.6161L12.4421 33.5781ZM12.8461 33.7161L14.2603 35.1303L23.1303 26.2603L21.7161 24.8461L20.3019 23.4319L11.4319 32.3019L12.8461 33.7161ZM21.7161 24.8461L23.5885 24.1432C23.5533 24.0494 23.5471 23.9745 23.567 23.8754L21.6061 23.4821L19.6451 23.0888C19.4784 23.9203 19.5455 24.7547 19.8437 25.549L21.7161 24.8461ZM21.6061 23.4821L23.567 23.8754C23.58 23.8107 23.6021 23.7582 23.6776 23.683L22.2661 22.2661L20.8546 20.8492C20.2368 21.4646 19.8188 22.2228 19.6451 23.0888L21.6061 23.4821ZM22.2661 22.2661L23.6776 23.683C23.757 23.6039 23.8142 23.5795 23.8819 23.5657L23.4821 21.6061L23.0823 19.6465C22.222 19.822 21.4685 20.2377 20.8546 20.8492L22.2661 22.2661ZM23.4821 21.6061L23.8743 23.5672C23.9766 23.5468 24.0511 23.5538 24.1414 23.5878L24.8461 21.7161L25.5508 19.8444C24.7558 19.545 23.9209 19.4787 23.0899 19.6449L23.4821 21.6061ZM24.8461 21.7161L26.2603 23.1303L35.1303 14.2603L33.7161 12.8461L32.3019 11.4319L23.4319 20.3019L24.8461 21.7161ZM33.7161 12.8461L35.6333 12.2766L35.5133 11.8726L33.5961 12.4421L31.6789 13.0116L31.7989 13.4156L33.7161 12.8461ZM33.5961 12.4421L35.5106 11.8637C35.5406 11.9628 35.5381 12.0169 35.5381 12.0001H33.5381H31.5381C31.5381 12.3166 31.5743 12.6654 31.6815 13.0204L33.5961 12.4421ZM33.5381 12.0001H35.5381C35.5381 11.8269 35.5753 11.7573 35.6663 11.6663L34.2521 10.2521L32.8379 8.83787C31.9768 9.69892 31.5381 10.7946 31.5381 12.0001H33.5381ZM34.2521 10.2521L35.6663 11.6663C35.7573 11.5753 35.8269 11.5381 36.0001 11.5381V9.53809V7.53809C34.7946 7.53809 33.6989 7.97683 32.8379 8.83787L34.2521 10.2521ZM36.0001 9.53809V11.5381C36.1733 11.5381 36.2429 11.5753 36.3339 11.6663L37.7481 10.2521L39.1623 8.83787C38.3013 7.97683 37.2056 7.53809 36.0001 7.53809V9.53809ZM37.7481 10.2521L36.3339 11.6663C36.4248 11.7573 36.4621 11.8269 36.4621 12.0001H38.4621H40.4621C40.4621 10.7946 40.0233 9.69892 39.1623 8.83787L37.7481 10.2521ZM38.4621 12.0001H36.4621C36.4621 12.1733 36.4248 12.2429 36.3339 12.3339L37.7481 13.7481L39.1623 15.1623C40.0233 14.3013 40.4621 13.2056 40.4621 12.0001H38.4621ZM37.7481 13.7481L36.3339 12.3339C36.2429 12.4248 36.1733 12.4621 36.0001 12.4621V14.4621V16.4621C37.2056 16.4621 38.3013 16.0233 39.1623 15.1623L37.7481 13.7481ZM36.0001 14.4621V12.4621C35.8799 12.4621 35.8543 12.4524 35.8924 12.4604C35.9146 12.4651 35.9713 12.4785 36.0501 12.5107C36.1287 12.5429 36.2471 12.601 36.3782 12.7024L35.1541 14.2841L33.93 15.8657C34.6564 16.4279 35.5503 16.4621 36.0001 16.4621V14.4621ZM35.1541 14.2841L33.7407 12.8691L24.8707 21.7291L26.2841 23.1441L27.6975 24.5591L36.5675 15.6991L35.1541 14.2841ZM26.2841 23.1441L24.4124 23.8488C24.4459 23.9378 24.4539 24.0143 24.4325 24.122L26.3941 24.5121L28.3557 24.9022C28.5209 24.0712 28.4556 23.2357 28.1558 22.4394L26.2841 23.1441ZM26.3941 24.5121L24.4325 24.122C24.4184 24.1928 24.3948 24.2452 24.3226 24.3171L25.7341 25.7341L27.1456 27.151C27.7667 26.5323 28.1831 25.77 28.3557 24.9022L26.3941 24.5121ZM25.7341 25.7341L24.3172 24.3225C24.227 24.413 24.1682 24.434 24.1128 24.4451L24.5061 26.4061L24.8994 28.367C25.7746 28.1915 26.5345 27.7645 27.151 27.1456L25.7341 25.7341ZM24.5061 26.4061L24.1139 24.4449C24.0223 24.4632 23.9569 24.4573 23.8713 24.4238L23.1421 26.2861L22.4129 28.1484C23.2126 28.4615 24.0565 28.5356 24.8983 28.3672L24.5061 26.4061ZM23.1421 26.2861L21.7292 24.8706L13.0792 33.5046L14.4921 34.9201L15.905 36.3356L24.555 27.7016L23.1421 26.2861ZM14.4921 34.9201L13.0778 36.3343L13.1558 36.4123L14.5701 34.9981L15.9843 33.5839L15.9063 33.5059L14.4921 34.9201ZM14.5701 34.9981V36.9981H21.7541V34.9981V32.9981H14.5701V34.9981ZM21.7541 34.9981L23.5578 35.8621C23.6231 35.7258 23.6951 35.6502 23.7819 35.5919L22.6661 33.9321L21.5502 32.2723C20.8477 32.7446 20.3117 33.3797 19.9504 34.134L21.7541 34.9981ZM22.6661 33.9321L23.7781 35.5945C23.8294 35.5601 23.8838 35.5361 24.0001 35.5361V33.5361V31.5361C23.127 31.5361 22.2921 31.7761 21.5541 32.2697L22.6661 33.9321ZM24.0001 33.5361V35.5361C24.1355 35.5361 24.2192 35.5652 24.3008 35.617L25.3721 33.9281L26.4434 32.2392C25.7009 31.7683 24.87 31.5361 24.0001 31.5361V33.5361ZM25.3721 33.9281L24.3022 35.6179C24.3611 35.6552 24.3909 35.6876 24.4226 35.7642L26.2701 34.9981L28.1175 34.2319C27.7733 33.4019 27.2044 32.721 26.4419 32.2383L25.3721 33.9281ZM26.2701 34.9981V36.9981H33.7301V34.9981V32.9981H26.2701V34.9981ZM33.7301 34.9981L35.5397 35.8497C35.6041 35.7128 35.671 35.647 35.7445 35.5987L34.6481 33.9261L33.5516 32.2534C32.8279 32.7279 32.2827 33.3767 31.9204 34.1465L33.7301 34.9981ZM34.6481 33.9261L35.7406 35.6013C35.7957 35.5654 35.8625 35.5361 36.0001 35.5361V33.5361V31.5361C35.1323 31.5361 34.2978 31.7668 33.5555 32.2509L34.6481 33.9261ZM36.0001 33.5361V35.5361C36.1733 35.5361 36.2429 35.5733 36.3339 35.6643L37.7481 34.2501L39.1623 32.8359C38.3013 31.9748 37.2056 31.5361 36.0001 31.5361V33.5361ZM37.7481 34.2501L36.3339 35.6643C36.4248 35.7553 36.4621 35.8249 36.4621 35.9981H38.4621H40.4621C40.4621 34.7926 40.0233 33.6969 39.1623 32.8359L37.7481 34.2501ZM38.4621 35.9981H36.4621C36.4621 36.1713 36.4248 36.2409 36.3339 36.3319L37.7481 37.7461L39.1623 39.1603C40.0233 38.2993 40.4621 37.2036 40.4621 35.9981H38.4621ZM37.7481 37.7461L36.3339 36.3319C36.2429 36.4228 36.1733 36.4601 36.0001 36.4601V38.4601V40.4601C37.2056 40.4601 38.3013 40.0213 39.1623 39.1603L37.7481 37.7461ZM36.0001 38.4601V36.4601C35.8689 36.4601 35.8063 36.4323 35.7523 36.3966L34.6481 38.0641L33.5438 39.7316C34.2872 40.2239 35.1259 40.4601 36.0001 40.4601V38.4601ZM34.6481 38.0641L35.7523 36.3966C35.6668 36.3399 35.5977 36.2678 35.5348 36.1361L33.7301 36.9981L31.9254 37.86C32.2891 38.6217 32.832 39.2603 33.5438 39.7316L34.6481 38.0641ZM33.7301 36.9981V34.9981H26.2701V36.9981V38.9981H33.7301V36.9981ZM26.2701 36.9981L24.4207 36.2366C24.3913 36.308 24.3636 36.3403 24.3013 36.3796L25.3701 38.0701L26.4389 39.7605C27.2033 39.2773 27.7755 38.5949 28.1194 37.7596L26.2701 36.9981ZM25.3701 38.0701L24.3002 36.3803C24.221 36.4305 24.1376 36.4601 24.0001 36.4601V38.4601V40.4601C24.8679 40.4601 25.6979 40.2297 26.4399 39.7599L25.3701 38.0701ZM24.0001 38.4601V36.4601C23.8838 36.4601 23.8294 36.4361 23.7781 36.4017L22.6661 38.0641L21.5541 39.7265C22.2921 40.2201 23.127 40.4601 24.0001 40.4601V38.4601ZM22.6661 38.0641L23.7819 36.4043C23.6951 36.3459 23.6231 36.2704 23.5578 36.134L21.7541 36.9981L19.9504 37.8621C20.3117 38.6164 20.8477 39.2516 21.5502 39.7239L22.6661 38.0641ZM21.7541 36.9981V34.9981H14.2461V36.9981V38.9981H21.7541V36.9981ZM14.2461 36.9981L12.4007 36.2269C12.3703 36.2998 12.3382 36.3392 12.2676 36.3849L13.3541 38.0641L14.4406 39.7432C15.1859 39.2609 15.7485 38.5897 16.0914 37.7693L14.2461 36.9981ZM13.3541 38.0641L12.2676 36.3849C12.1893 36.4356 12.1166 36.4601 12.0001 36.4601V38.4601V40.4601C12.873 40.4601 13.7028 40.2206 14.4406 39.7432L13.3541 38.0641ZM12.0001 26.4601V24.4601C11.8269 24.4601 11.7573 24.4228 11.6663 24.3319L10.2521 25.7461L8.83787 27.1603C9.69892 28.0213 10.7946 28.4601 12.0001 28.4601V26.4601ZM10.2521 25.7461L11.6663 24.3319C11.5745 24.2401 11.5381 24.1708 11.5381 24.0001H9.53809H7.53809C7.53809 25.2054 7.97764 26.3001 8.83787 27.1603L10.2521 25.7461ZM9.53809 24.0001H11.5381C11.5381 23.8293 11.5747 23.7582 11.6683 23.6643L10.2521 22.2521L8.8359 20.8399C7.97749 21.7007 7.53809 22.7948 7.53809 24.0001H9.53809ZM10.2521 22.2521L11.6683 23.6643C11.7587 23.5737 11.8261 23.5378 11.9962 23.5381L12.0001 21.5381L12.004 19.5381C10.7954 19.5358 9.6975 19.9758 8.8359 20.8399L10.2521 22.2521ZM12.0001 21.5381L11.9962 23.5381C12.1725 23.5384 12.2443 23.577 12.3359 23.6683L13.7481 22.2521L15.1603 20.8359C14.2998 19.9778 13.2064 19.5404 12.004 19.5381L12.0001 21.5381ZM13.7481 22.2521L12.3359 23.6683C12.4242 23.7563 12.4621 23.8245 12.4621 24.0001H14.4621H16.4621C16.4621 22.7943 16.024 21.6972 15.1603 20.8359L13.7481 22.2521ZM14.4621 24.0001H12.4621C12.4621 24.1757 12.4242 24.2438 12.3359 24.3319L13.7481 25.7481L15.1603 27.1643C16.024 26.303 16.4621 25.2058 16.4621 24.0001H14.4621ZM13.7481 25.7481L12.3359 24.3319C12.2443 24.4232 12.1725 24.4617 11.9962 24.4621L12.0001 26.4621L12.004 28.4621C13.2064 28.4598 14.2998 28.0223 15.1603 27.1643L13.7481 25.7481ZM12.0001 14.4621V12.4621C11.8269 12.4621 11.7573 12.4248 11.6663 12.3339L10.2521 13.7481L8.83787 15.1623C9.69892 16.0233 10.7946 16.4621 12.0001 16.4621V14.4621ZM10.2521 13.7481L11.6663 12.3339C11.5753 12.2429 11.5381 12.1733 11.5381 12.0001H9.53809H7.53809C7.53809 13.2056 7.97683 14.3013 8.83787 15.1623L10.2521 13.7481ZM9.53809 12.0001H11.5381C11.5381 11.8269 11.5753 11.7573 11.6663 11.6663L10.2521 10.2521L8.83787 8.83787C7.97683 9.69892 7.53809 10.7946 7.53809 12.0001H9.53809ZM10.2521 10.2521L11.6663 11.6663C11.7573 11.5753 11.8269 11.5381 12.0001 11.5381V9.53809V7.53809C10.7946 7.53809 9.69892 7.97683 8.83787 8.83787L10.2521 10.2521ZM12.0001 9.53809V11.5381C12.1733 11.5381 12.2429 11.5753 12.3339 11.6663L13.7481 10.2521L15.1623 8.83787C14.3013 7.97683 13.2056 7.53809 12.0001 7.53809V9.53809ZM13.7481 10.2521L12.3339 11.6663C12.4248 11.7573 12.4621 11.8269 12.4621 12.0001H14.4621H16.4621C16.4621 10.7946 16.0233 9.69892 15.1623 8.83787L13.7481 10.2521ZM14.4621 12.0001H12.4621C12.4621 12.1733 12.4248 12.2429 12.3339 12.3339L13.7481 13.7481L15.1623 15.1623C16.0233 14.3013 16.4621 13.2056 16.4621 12.0001H14.4621ZM13.7481 13.7481L12.3339 12.3339C12.2429 12.4248 12.1733 12.4621 12.0001 12.4621V14.4621V16.4621C13.2056 16.4621 14.3013 16.0233 15.1623 15.1623L13.7481 13.7481ZM22.2521 13.7481L23.6663 12.3339C23.5753 12.2429 23.5381 12.1733 23.5381 12.0001H21.5381H19.5381C19.5381 13.2056 19.9768 14.3013 20.8379 15.1623L22.2521 13.7481ZM21.5381 12.0001H23.5381C23.5381 11.8269 23.5753 11.7573 23.6663 11.6663L22.2521 10.2521L20.8379 8.83787C19.9768 9.69892 19.5381 10.7946 19.5381 12.0001H21.5381ZM22.2521 10.2521L23.6663 11.6663C23.7573 11.5753 23.8269 11.5381 24.0001 11.5381V9.53809V7.53809C22.7946 7.53809 21.6989 7.97683 20.8379 8.83787L22.2521 10.2521ZM24.0001 9.53809V11.5381C24.1733 11.5381 24.2429 11.5753 24.3339 11.6663L25.7481 10.2521L27.1623 8.83787C26.3013 7.97683 25.2056 7.53809 24.0001 7.53809V9.53809ZM25.7481 10.2521L24.3339 11.6663C24.4248 11.7573 24.4621 11.8269 24.4621 12.0001H26.4621H28.4621C28.4621 10.7946 28.0233 9.69892 27.1623 8.83787L25.7481 10.2521ZM26.4621 12.0001H24.4621C24.4621 12.1733 24.4248 12.2429 24.3339 12.3339L25.7481 13.7481L27.1623 15.1623C28.0233 14.3013 28.4621 13.2056 28.4621 12.0001H26.4621ZM25.7481 13.7481L24.3339 12.3339C24.2429 12.4248 24.1733 12.4621 24.0001 12.4621V14.4621V16.4621C25.2056 16.4621 26.3013 16.0233 27.1623 15.1623L25.7481 13.7481ZM24.0001 14.4621V12.4621C23.8269 12.4621 23.7573 12.4248 23.6663 12.3339L22.2521 13.7481L20.8379 15.1623C21.6989 16.0233 22.7946 16.4621 24.0001 16.4621V14.4621ZM36.0001 26.4621V24.4621C35.8269 24.4621 35.7573 24.4248 35.6663 24.3339L34.2521 25.7481L32.8379 27.1623C33.6989 28.0233 34.7946 28.4621 36.0001 28.4621V26.4621ZM34.2521 25.7481L35.6663 24.3339C35.5753 24.2429 35.5381 24.1733 35.5381 24.0001H33.5381H31.5381C31.5381 25.2056 31.9768 26.3013 32.8379 27.1623L34.2521 25.7481ZM33.5381 24.0001H35.5381C35.5381 23.8269 35.5753 23.7573 35.6663 23.6663L34.2521 22.2521L32.8379 20.8379C31.9768 21.6989 31.5381 22.7946 31.5381 24.0001H33.5381ZM34.2521 22.2521L35.6663 23.6663C35.7573 23.5753 35.8269 23.5381 36.0001 23.5381V21.5381V19.5381C34.7946 19.5381 33.6989 19.9768 32.8379 20.8379L34.2521 22.2521ZM36.0001 21.5381V23.5381C36.1733 23.5381 36.2429 23.5753 36.3339 23.6663L37.7481 22.2521L39.1623 20.8379C38.3013 19.9768 37.2056 19.5381 36.0001 19.5381V21.5381ZM37.7481 22.2521L36.3339 23.6663C36.4248 23.7573 36.4621 23.8269 36.4621 24.0001H38.4621H40.4621C40.4621 22.7946 40.0233 21.6989 39.1623 20.8379L37.7481 22.2521ZM38.4621 24.0001H36.4621C36.4621 24.1733 36.4248 24.2429 36.3339 24.3339L37.7481 25.7481L39.1623 27.1623C40.0233 26.3013 40.4621 25.2056 40.4621 24.0001H38.4621ZM37.7481 25.7481L36.3339 24.3339C36.2429 24.4248 36.1733 24.4621 36.0001 24.4621V26.4621V28.4621C37.2056 28.4621 38.3013 28.0233 39.1623 27.1623L37.7481 25.7481Z" fill="#DE3809" mask="url(#path-1-inside-1_10006_508)" />
</symbol><symbol id="icon-playstore" viewBox="0 0 150 32"><path fill="#eb4335" d="M13.447 15.301.123 29.008q0 .003.003.007c.408 1.49 1.811 2.585 3.475 2.585.666 0 1.29-.175 1.826-.48l.043-.024 14.998-8.388-7.019-7.407z" style="fill:var(--color4, #eb4335)"/><path fill="#fabc13" d="m26.927 12.967-.012-.008L20.44 9.32l-7.295 6.292 7.32 7.094 6.441-3.601c1.129-.591 1.895-1.744 1.895-3.075 0-1.321-.756-2.47-1.873-3.062z" style="fill:var(--color5, #fabc13)"/><path fill="#547dbf" d="M.123 2.992q-.121.43-.123.898v24.22q0 .47.123.898l13.782-13.356z" style="fill:var(--color6, #547dbf)"/><path fill="#30a851" d="m13.545 15.999 6.897-6.682L5.461.899A3.7 3.7 0 0 0 3.601.4C1.937.4.532 1.498.123 2.989v.004z" style="fill:var(--color7, #30a851)"/><path fill="#fafafa" d="M44.552 1.752a2.8 2.8 0 0 0-.952-.579 3.3 3.3 0 0 0-1.16-.205q-.63 0-1.16.21-.526.21-.91.599-.38.39-.593.924-.208.534-.208 1.178c0 .644.069.824.208 1.183q.209.539.588.934.385.395.905.609.525.215 1.149.215.561 0 1.035-.175c.474-.175.593-.283.832-.499q.358-.324.582-.779c.224-.455.244-.637.286-1.003h-2.658V3.51h3.672l.031.409q0 .854-.276 1.563c-.276.709-.446.882-.785 1.228a3.5 3.5 0 0 1-1.201.799q-.692.28-1.529.28a4.3 4.3 0 0 1-1.597-.29 4 4 0 0 1-1.274-.819 3.8 3.8 0 0 1-.843-1.238 3.9 3.9 0 0 1-.296-1.538q0-.839.302-1.548.302-.714.842-1.243.546-.53 1.279-.819a4.3 4.3 0 0 1 1.597-.295q.816 0 1.555.27.744.27 1.321.774l-.744.709zm2.388 5.886V.15h4.863v.969h-3.718V3.36h3.505v.968h-3.505v2.341h3.771v.968h-4.915zm8.93 0h-1.144v-6.52h-2.439V.149h6.022v.969H55.87zm5.03 0V.15h1.144v7.488zm5.206 0h-1.144v-6.52h-2.439V.149h6.022v.969h-2.439zm8.769.15a4.5 4.5 0 0 1-1.628-.29 3.9 3.9 0 0 1-1.295-.814 3.75 3.75 0 0 1-.848-1.238 3.95 3.95 0 0 1-.302-1.553q0-.843.302-1.553.302-.714.848-1.238a3.9 3.9 0 0 1 1.295-.814 4.5 4.5 0 0 1 1.628-.29q.883 0 1.623.29.744.29 1.29.814.552.524.853 1.238.302.709.302 1.553 0 .839-.302 1.553a3.7 3.7 0 0 1-.853 1.238 3.9 3.9 0 0 1-1.29.814 4.4 4.4 0 0 1-1.623.29m0-.969q.624 0 1.155-.22c.531-.22.66-.351.92-.614q.39-.4.603-.929.218-.534.218-1.163c0-.629-.073-.807-.218-1.163a2.8 2.8 0 0 0-.603-.929 2.7 2.7 0 0 0-.92-.614q-.53-.22-1.155-.22c-.625 0-.801.073-1.155.22q-.525.215-.92.614-.39.394-.608.929c-.218.535-.218.744-.218 1.163s.073.807.218 1.163a2.9 2.9 0 0 0 .608.934q.395.395.92.614.53.215 1.155.215m11.697.819h-1.258l-4.483-5.781v5.781h-1.144V.15h1.258l4.483 5.786V.15h1.144zm-35.753 7.678a5 5 0 0 0-1.768-1.088 6.2 6.2 0 0 0-2.174-.379 5.8 5.8 0 0 0-2.153.389 4.8 4.8 0 0 0-1.675 1.118 4.95 4.95 0 0 0-1.092 1.717q-.385.988-.385 2.197 0 1.218.385 2.236a5.3 5.3 0 0 0 1.103 1.747q.718.74 1.695 1.138c.977.398 1.369.399 2.153.399q1.02 0 1.872-.3a4.6 4.6 0 0 0 1.498-.879q.655-.58 1.071-1.388c.416-.808.461-1.138.551-1.797h-4.93v-2.037h7.354l.073.998q0 1.707-.551 3.125a7.1 7.1 0 0 1-1.55 2.446q-1.01 1.029-2.392 1.588c-1.382.559-1.942.559-3.058.559q-1.727 0-3.204-.589a8 8 0 0 1-2.569-1.637 7.6 7.6 0 0 1-1.706-2.476q-.603-1.418-.603-3.085 0-1.657.603-3.075a7.7 7.7 0 0 1 1.695-2.486 7.7 7.7 0 0 1 2.559-1.637q1.477-.59 3.193-.589a9.1 9.1 0 0 1 3.12.539 8.4 8.4 0 0 1 2.673 1.548l-1.789 1.697zm9.726 11.692q-1.58 0-2.84-.679a5.2 5.2 0 0 1-1.976-1.847q-.718-1.178-.718-2.666c0-1.488.239-1.877.718-2.656a5.2 5.2 0 0 1 1.976-1.857q1.259-.68 2.84-.679 1.592 0 2.84.679c1.248.679 1.484 1.072 1.955 1.857q.718 1.168.718 2.656c0 1.488-.239 1.88-.718 2.666q-.707 1.168-1.955 1.847c-1.248.679-1.779.679-2.84.679m-.01-2.207q.833 0 1.487-.389c.654-.389.78-.616 1.03-1.068a3.06 3.06 0 0 0 .385-1.538q0-.849-.385-1.518-.375-.68-1.03-1.068c-.655-.388-.933-.389-1.487-.389q-.822 0-1.487.389a2.86 2.86 0 0 0-1.04 1.068 3.05 3.05 0 0 0-.374 1.518q0 .858.374 1.538.385.68 1.04 1.068.666.39 1.487.389m11.557 2.207q-1.581 0-2.84-.679a5.2 5.2 0 0 1-1.976-1.847q-.718-1.178-.718-2.666c0-1.488.239-1.877.718-2.656a5.2 5.2 0 0 1 1.976-1.857q1.259-.68 2.84-.679 1.591 0 2.84.679c1.249.679 1.484 1.072 1.956 1.857q.718 1.168.718 2.656c0 1.488-.239 1.88-.718 2.666q-.707 1.168-1.956 1.847c-1.249.679-1.779.679-2.84.679m-.011-2.207q.832 0 1.487-.389c.655-.389.78-.616 1.03-1.068a3.06 3.06 0 0 0 .385-1.538q0-.849-.385-1.518-.375-.68-1.03-1.068c-.655-.388-.933-.389-1.487-.389q-.822 0-1.487.389a2.86 2.86 0 0 0-1.04 1.068 3.05 3.05 0 0 0-.374 1.518q0 .858.374 1.538.385.68 1.04 1.068.666.39 1.487.389m11.048 2.087q-1.446 0-2.58-.669c-1.134-.669-1.352-1.055-1.789-1.827q-.655-1.168-.655-2.636 0-1.478.655-2.636c.655-1.158 1.033-1.381 1.789-1.827q1.134-.669 2.58-.669 1.133 0 2.09.419c.957.419 1.178.669 1.622 1.168l.125-1.388h2.247v9.715q0 1.658-.739 2.885-.727 1.228-2.059 1.897-1.331.68-3.151.679a7.2 7.2 0 0 1-4.525-1.548l1.051-2.007q1.394 1.348 3.308 1.348 1.082 0 1.872-.419a2.94 2.94 0 0 0 1.238-1.168q.447-.749.447-1.757v-.958q-.666.659-1.57 1.028c-.904.369-1.255.369-1.955.369zm.561-2.187q.82 0 1.487-.35.676-.36 1.071-.978.406-.62.406-1.408v-.439a2.46 2.46 0 0 0-.406-1.398 2.75 2.75 0 0 0-1.071-.958 3.1 3.1 0 0 0-1.487-.359 3 3 0 0 0-1.53.389q-.675.38-1.071 1.048-.385.669-.385 1.508c0 .839.129 1.062.385 1.508q.396.67 1.071 1.058.677.38 1.53.379m10.069 2.107h-2.735V11.831h2.735zm11.359-1.158q-1.945 1.358-4.254 1.358-1.675 0-3.006-.699c-1.331-.699-1.591-1.102-2.111-1.907q-.77-1.207-.77-2.736 0-1.447.697-2.586a5.05 5.05 0 0 1 1.924-1.797q1.228-.659 2.766-.659 1.602 0 2.809.729a4.95 4.95 0 0 1 1.893 2.007q.676 1.278.676 2.975v.32h-8.009q.187.68.655 1.198.478.52 1.186.809c.708.289 1.002.29 1.592.29q1.663 0 3.078-1.038zm-7.488-4.433h5.742a2.75 2.75 0 0 0-.478-1.308 2.6 2.6 0 0 0-1.009-.869q-.614-.32-1.383-.32-.781 0-1.394.32c-.613.32-.742.509-.998.889a2.9 2.9 0 0 0-.478 1.288zm13.429 5.591V11.831h5.159q1.956 0 3.36.599 1.415.599 2.163 1.707.759 1.108.759 2.646 0 1.527-.759 2.646-.749 1.118-2.153 1.727-1.404.599-3.35.599h-2.434v5.052zm2.747-7.358h2.153q1.8 0 2.767-.699.967-.709.967-1.967c0-1.258-.326-1.488-.978-1.947q-.967-.689-2.757-.689h-2.153zm12.908 7.358h-2.735V11.831h2.735zm10.912 0H135.4l-.146-1.228a3.9 3.9 0 0 1-1.425 1.058 4.7 4.7 0 0 1-1.893.369q-1.102 0-1.966-.409-.864-.42-1.363-1.138a2.84 2.84 0 0 1-.489-1.637q0-.968.53-1.697.541-.74 1.467-1.158.935-.42 2.132-.419.728 0 1.456.16a6.4 6.4 0 0 1 1.362.449v-.32q0-.659-.374-1.138c-.374-.479-.586-.566-1.009-.739a3.6 3.6 0 0 0-1.425-.27 4.5 4.5 0 0 0-1.435.24 4.6 4.6 0 0 0-1.342.689l-.728-1.927a9.4 9.4 0 0 1 2.039-.799q1.05-.27 2.049-.27 1.467 0 2.538.559a3.9 3.9 0 0 1 1.654 1.578q.593 1.019.593 2.406v5.641zm-5.159-1.777q.675 0 1.248-.27.583-.27.946-.749a1.9 1.9 0 0 0 .395-1.118v-.11a3.8 3.8 0 0 0-1.102-.519 4.2 4.2 0 0 0-1.238-.19q-.957 0-1.57.419-.615.41-.614 1.078 0 .409.25.749.25.33.686.519.447.19.998.19zm11.474 6.769h-2.736l2.164-5.032-5.159-9.944h2.881l3.495 7.139 3.079-7.139h2.735z" style="fill:var(--color2, #fafafa)"/></symbol><symbol id="icon-speed" viewBox="0 0 32 32"><path fill="none" stroke="#de3809" stroke-linecap="round" stroke-linejoin="round" stroke-width="2" d="M22.682 4.46A13.27 13.27 0 0 0 16 2.667C8.636 2.667 2.667 8.636 2.667 16S8.636 29.333 16 29.333 29.333 23.364 29.333 16c0-2.418-.644-4.687-1.769-6.641M21.3 10.7s-2.259 6.03-3.3 7.071a2.666 2.666 0 1 1-3.772-3.772c1.041-1.041 7.071-3.3 7.071-3.3z" style="stroke:var(--color1, #de3809)"/></symbol><symbol id="icon-spelling" viewBox="0 0 32 32"><path fill="#de3809" d="M8.558 12.313a.02.02 0 0 0-.017.01q-.452.79-1.104 1.224-.656.438-1.609.453-.625 0-1.141-.172c-.516-.172-.646-.292-.906-.531q-.39-.36-.578-.844c-.188-.484-.193-.708-.203-1.156q0-.703.203-1.219c.203-.516.333-.641.594-.891q.39-.375.922-.594c.532-.219.755-.255 1.203-.328l1.77-.26c.509-.075.901-.515.808-1.021q-.078-.422-.297-.75c-.219-.328-.333-.391-.563-.516q-.344-.188-.891-.203a4 4 0 0 0-1.861.441c-.434.219-1.03-.062-1.03-.548 0-.178.082-.349.237-.438q.174-.099.388-.189.375-.156.813-.266c.438-.11.573-.135.844-.188q.407-.078.734-.078.843 0 1.438.234c.595.234.719.391.969.703s.432.677.547 1.094Q10 6.905 10 7.717v5.336a.71.71 0 1 1-1.422 0v-.722a.02.02 0 0 0-.02-.02zm-2.402.421q.578 0 1.016-.219c.438-.219.547-.349.766-.609q.328-.39.469-.875c.141-.485.151-.667.172-1.031a.804.804 0 0 0-.927-.795l-1.214.186q-.437.078-.797.172c-.36.094-.448.156-.625.281s-.313.297-.406.516q-.141.328-.156.828 0 .75.5 1.141c.5.391.734.396 1.203.406zm7.286-.297a.02.02 0 0 0-.02.02v.644a.664.664 0 0 1-.664.664h-.047a.71.71 0 0 1-.711-.711V.71a.71.71 0 1 1 1.422 0v5.379q.002.018.02.02a.02.02 0 0 0 .017-.01q.514-.915 1.354-1.381a3.8 3.8 0 0 1 1.891-.469q.984 0 1.672.391c.688.391.833.609 1.125 1.047q.437.656.641 1.469c.204.813.203 1.104.203 1.687q0 .952-.219 1.875c-.219.923-.385 1.161-.719 1.641q-.5.719-1.25 1.187c-.75.468-1.12.464-1.859.453q-.891 0-1.641-.391a2.95 2.95 0 0 1-1.197-1.162.02.02 0 0 0-.017-.01zm-.02-3.765v1.297q0 .61.188 1.109c.188.499.312.625.562.875q.375.375.859.578c.484.203.693.203 1.109.203q.797 0 1.328-.359c.531-.359.635-.552.844-.938q.312-.578.437-1.25c.125-.672.13-.901.141-1.359q0-.609-.125-1.203c-.125-.594-.229-.75-.437-1.063q-.312-.47-.797-.75c-.485-.28-.719-.286-1.188-.297q-.703 0-1.25.234c-.547.234-.672.38-.922.672s-.437.625-.562 1a4 4 0 0 0-.188 1.25zm13.125-3.156q-.782 0-1.359.313c-.577.313-.708.484-.969.828q-.39.516-.578 1.187c-.188.671-.187.906-.187 1.375s.057.917.172 1.344q.172.64.547 1.125c.375.485.563.578.938.766q.563.28 1.359.281.594 0 1.141-.219l.064-.026c.423-.177.967.099.967.557a.51.51 0 0 1-.255.451 3.5 3.5 0 0 1-.902.346 6.2 6.2 0 0 1-1.266.156q-1.016 0-1.797-.359c-.781-.359-.958-.573-1.312-1q-.531-.64-.828-1.484c-.297-.844-.292-1.167-.281-1.813q0-1.078.297-2c.297-.922.49-1.156.875-1.625s.865-.828 1.438-1.078q.86-.375 2-.391.531 0 1.047.109.345.074.676.209a.54.54 0 0 1 .324.508v.022c0 .472-.555.762-1 .605a3.3 3.3 0 0 0-1.109-.188zm-13.975 21.65a2 2 0 0 0 2.826.002l9.195-9.169a.995.995 0 0 1 1.406 1.408L15.401 30.005a2 2 0 0 1-2.832-.003l-4.573-4.594a.996.996 0 0 1 1.41-1.406l3.165 3.165z" style="fill:var(--color1, #de3809)"/></symbol><symbol id="icon-text-recognition" viewBox="0 0 32 32"><path fill="none" stroke="#de3809" stroke-linecap="round" stroke-linejoin="round" stroke-width="2" d="M5.333 10.667V8A2.67 2.67 0 0 1 8 5.333h2.667m-5.334 16V24A2.67 2.67 0 0 0 8 26.667h2.667M21.333 5.333H24A2.67 2.67 0 0 1 26.667 8v2.667m-5.334 16H24A2.67 2.67 0 0 0 26.667 24v-2.667m-10.667 0V12m-4 0h8" style="stroke:var(--color1, #de3809)"/></symbol><symbol id="icon-visual-inspection" viewBox="0 0 48 48" fill="none">
  <mask id="path-1-inside-1_10006_456" fill="white">
    <path d="M39.0002 36.879L31.3277 29.2065C32.0693 28.1671 32.5812 26.9817 32.8295 25.7292C33.0778 24.4767 33.0567 23.1857 32.7677 21.942C32.0222 18.63 29.3507 15.957 26.0357 15.225C24.5462 14.8835 22.9945 14.926 21.5259 15.3483C20.0574 15.7706 18.7201 16.559 17.6396 17.6395C16.5591 18.72 15.7708 20.0572 15.3484 21.5258C14.9261 22.9943 14.8837 24.5461 15.2252 26.0355C15.9557 29.3505 18.6302 32.0235 21.9422 32.769C23.1859 33.058 24.4769 33.0791 25.7294 32.8308C26.9819 32.5826 28.1672 32.0706 29.2067 31.329L36.8792 39L39.0002 36.879ZM25.6277 29.784C24.6002 30.069 23.5154 30.076 22.4843 29.8044C21.4532 29.5327 20.5127 28.9921 19.7591 28.2378C19.0054 27.4836 18.4655 26.5427 18.1947 25.5113C17.9239 24.48 17.9318 23.3953 18.2177 22.368C18.4896 21.3745 19.0158 20.469 19.7444 19.7409C20.4731 19.0128 21.3789 18.4872 22.3727 18.216C23.4003 17.9309 24.4852 17.9238 25.5165 18.1955C26.5478 18.4672 27.4884 19.008 28.2421 19.7625C28.9959 20.517 29.5357 21.4581 29.8063 22.4897C30.077 23.5212 30.0688 24.6061 29.7827 25.6335C29.5108 26.627 28.9845 27.5325 28.2559 28.2606C27.5273 28.9887 26.6214 29.5128 25.6277 29.784ZM43.5992 24.5355L43.5017 24.2805C40.5152 16.422 32.1347 10.5 24.0002 10.5C15.8657 10.5 7.48516 16.422 4.50016 24.2745L4.39966 24.534C4.25743 24.9056 3.97343 25.2054 3.61013 25.3676C3.24682 25.5298 2.83398 25.541 2.46241 25.3988C2.09084 25.2565 1.79099 24.9725 1.62881 24.6092C1.46664 24.2459 1.45543 23.8331 1.59766 23.4615L1.69666 23.2065C5.09866 14.2515 14.6882 7.5 24.0002 7.5C33.3122 7.5 42.9032 14.253 46.3052 23.211L46.4012 23.463M24.0002 40.5C14.6882 40.5 5.10016 33.7455 1.69666 24.789L1.60066 24.54C1.45744 24.1688 1.46754 23.756 1.62872 23.3922C1.78991 23.0285 2.08899 22.7437 2.46016 22.6005C2.83133 22.4573 3.24419 22.4674 3.60792 22.6286C3.97164 22.7898 4.25644 23.0888 4.39966 23.46L4.49866 23.7165C7.48516 31.5765 15.8702 37.5 24.0002 37.5V40.5Z" />
  </mask>
  <path d="M39.0002 36.879L31.3277 29.2065C32.0693 28.1671 32.5812 26.9817 32.8295 25.7292C33.0778 24.4767 33.0567 23.1857 32.7677 21.942C32.0222 18.63 29.3507 15.957 26.0357 15.225C24.5462 14.8835 22.9945 14.926 21.5259 15.3483C20.0574 15.7706 18.7201 16.559 17.6396 17.6395C16.5591 18.72 15.7708 20.0572 15.3484 21.5258C14.9261 22.9943 14.8837 24.5461 15.2252 26.0355C15.9557 29.3505 18.6302 32.0235 21.9422 32.769C23.1859 33.058 24.4769 33.0791 25.7294 32.8308C26.9819 32.5826 28.1672 32.0706 29.2067 31.329L36.8792 39L39.0002 36.879ZM25.6277 29.784C24.6002 30.069 23.5154 30.076 22.4843 29.8044C21.4532 29.5327 20.5127 28.9921 19.7591 28.2378C19.0054 27.4836 18.4655 26.5427 18.1947 25.5113C17.9239 24.48 17.9318 23.3953 18.2177 22.368C18.4896 21.3745 19.0158 20.469 19.7444 19.7409C20.4731 19.0128 21.3789 18.4872 22.3727 18.216C23.4003 17.9309 24.4852 17.9238 25.5165 18.1955C26.5478 18.4672 27.4884 19.008 28.2421 19.7625C28.9959 20.517 29.5357 21.4581 29.8063 22.4897C30.077 23.5212 30.0688 24.6061 29.7827 25.6335C29.5108 26.627 28.9845 27.5325 28.2559 28.2606C27.5273 28.9887 26.6214 29.5128 25.6277 29.784ZM43.5992 24.5355L43.5017 24.2805C40.5152 16.422 32.1347 10.5 24.0002 10.5C15.8657 10.5 7.48516 16.422 4.50016 24.2745L4.39966 24.534C4.25743 24.9056 3.97343 25.2054 3.61013 25.3676C3.24682 25.5298 2.83398 25.541 2.46241 25.3988C2.09084 25.2565 1.79099 24.9725 1.62881 24.6092C1.46664 24.2459 1.45543 23.8331 1.59766 23.4615L1.69666 23.2065C5.09866 14.2515 14.6882 7.5 24.0002 7.5C33.3122 7.5 42.9032 14.253 46.3052 23.211L46.4012 23.463M24.0002 40.5C14.6882 40.5 5.10016 33.7455 1.69666 24.789L1.60066 24.54C1.45744 24.1688 1.46754 23.756 1.62872 23.3922C1.78991 23.0285 2.08899 22.7437 2.46016 22.6005C2.83133 22.4573 3.24419 22.4674 3.60792 22.6286C3.97164 22.7898 4.25644 23.0888 4.39966 23.46L4.49866 23.7165C7.48516 31.5765 15.8702 37.5 24.0002 37.5V40.5Z" fill="#DE3809" />
  <path d="M39.0002 36.879L41.1215 39.0003L43.2428 36.879L41.1215 34.7577L39.0002 36.879ZM31.3277 29.2065L28.8855 27.4641L27.4103 29.5318L29.2063 31.3278L31.3277 29.2065ZM32.7677 21.942L29.8409 22.6008L29.8432 22.6109L29.8455 22.6211L32.7677 21.942ZM26.0357 15.225L25.3653 18.1491L25.377 18.1518L25.3888 18.1544L26.0357 15.225ZM15.2252 26.0355L18.1549 25.3899L18.1521 25.3775L18.1493 25.3651L15.2252 26.0355ZM21.9422 32.769L22.6212 29.8469L22.6111 29.8445L22.6009 29.8422L21.9422 32.769ZM29.2067 31.329L31.3278 29.2075L29.5317 27.4118L27.4642 28.8869L29.2067 31.329ZM36.8792 39L34.758 41.1215L36.8794 43.2424L39.0005 41.1213L36.8792 39ZM25.6277 29.784L24.8378 26.8898L24.8258 26.8932L25.6277 29.784ZM18.2177 22.368L21.1079 23.1722L21.1113 23.1599L18.2177 22.368ZM22.3727 18.216L23.1625 21.1102L23.1748 21.1068L22.3727 18.216ZM29.7827 25.6335L26.8927 24.8285L26.8891 24.8416L29.7827 25.6335ZM43.5017 24.2805L40.6973 25.3462L40.6995 25.3519L43.5017 24.2805ZM4.50016 24.2745L7.29769 25.3579L7.30106 25.3492L7.30438 25.3405L4.50016 24.2745ZM4.39966 24.534L1.60211 23.4506L1.59788 23.4616L4.39966 24.534ZM1.59766 23.4615L-1.19897 22.3757L-1.20156 22.3824L-1.20412 22.3891L1.59766 23.4615ZM1.69666 23.2065L4.49329 24.2922L4.49723 24.2821L4.5011 24.2719L1.69666 23.2065ZM46.3052 23.211L43.5006 24.2761L43.5017 24.279L46.3052 23.211ZM24.0002 40.5V43.5H27.0002V40.5H24.0002ZM1.69666 24.789L4.501 23.7233L4.49843 23.7166L4.49582 23.7098L1.69666 24.789ZM1.60066 24.54L4.39982 23.4608L4.39953 23.46L1.60066 24.54ZM4.39966 23.46L1.60078 24.54L1.60089 24.5402L4.39966 23.46ZM4.49866 23.7165L7.30304 22.6509L7.30025 22.6436L7.29743 22.6363L4.49866 23.7165ZM24.0002 37.5H27.0002V34.5H24.0002V37.5ZM39.0002 36.879L41.1215 34.7577L33.449 27.0852L31.3277 29.2065L29.2063 31.3278L36.8788 39.0003L39.0002 36.879ZM31.3277 29.2065L33.7698 30.9489C34.7586 29.563 35.4412 27.9826 35.7722 26.3126L32.8295 25.7292L29.8868 25.1459C29.7212 25.9809 29.3799 26.7711 28.8855 27.4641L31.3277 29.2065ZM32.8295 25.7292L35.7722 26.3126C36.1033 24.6425 36.0752 22.9212 35.6898 21.2629L32.7677 21.942L29.8455 22.6211C30.0382 23.4502 30.0523 24.3109 29.8868 25.1459L32.8295 25.7292ZM32.7677 21.942L35.6944 21.2832C34.6948 16.8424 31.1395 13.2797 26.6825 12.2956L26.0357 15.225L25.3888 18.1544C27.5618 18.6343 29.3495 20.4176 29.8409 22.6008L32.7677 21.942ZM26.0357 15.225L26.706 12.3009C24.7214 11.8459 22.6537 11.9024 20.6968 12.4651L21.5259 15.3483L22.3551 18.2314C23.3353 17.9495 24.3711 17.9212 25.3653 18.1491L26.0357 15.225ZM21.5259 15.3483L20.6968 12.4651C18.74 13.0279 16.9581 14.0784 15.5183 15.5182L17.6396 17.6395L19.761 19.7608C20.4822 19.0396 21.3748 18.5133 22.3551 18.2314L21.5259 15.3483ZM17.6396 17.6395L15.5183 15.5182C14.0785 16.9579 13.028 18.7398 12.4653 20.6967L15.3484 21.5258L18.2316 22.3549C18.5135 21.3746 19.0397 20.482 19.761 19.7608L17.6396 17.6395ZM15.3484 21.5258L12.4653 20.6967C11.9025 22.6535 11.846 24.7212 12.301 26.7059L15.2252 26.0355L18.1493 25.3651C17.9214 24.3709 17.9497 23.3351 18.2316 22.3549L15.3484 21.5258ZM15.2252 26.0355L12.2954 26.6811C13.2779 31.1393 16.8427 34.6962 21.2834 35.6958L21.9422 32.769L22.6009 29.8422C20.4176 29.3508 18.6334 27.5617 18.1549 25.3899L15.2252 26.0355ZM21.9422 32.769L21.2631 35.6911C22.9214 36.0765 24.6427 36.1046 26.3127 35.7736L25.7294 32.8308L25.1461 29.8881C24.3111 30.0536 23.4504 30.0396 22.6212 29.8469L21.9422 32.769ZM25.7294 32.8308L26.3127 35.7736C27.9827 35.4425 29.5632 34.7599 30.9491 33.7711L29.2067 31.329L27.4642 28.8869C26.7713 29.3813 25.9811 29.7226 25.1461 29.8881L25.7294 32.8308ZM29.2067 31.329L27.0855 33.4505L34.758 41.1215L36.8792 39L39.0003 36.8785L31.3278 29.2075L29.2067 31.329ZM36.8792 39L39.0005 41.1213L41.1215 39.0003L39.0002 36.879L36.8788 34.7577L34.7578 36.8787L36.8792 39ZM25.6277 29.784L24.8258 26.8932C24.3102 27.0362 23.766 27.0397 23.2486 26.9034L22.4843 29.8044L21.72 32.7054C23.2649 33.1124 24.8901 33.1019 26.4295 32.6748L25.6277 29.784ZM22.4843 29.8044L23.2486 26.9034C22.7313 26.7671 22.2594 26.4958 21.8812 26.1174L19.7591 28.2378L17.6369 30.3583C18.7661 31.4884 20.1751 32.2984 21.72 32.7054L22.4843 29.8044ZM19.7591 28.2378L21.8812 26.1174C21.5031 25.7389 21.2322 25.2668 21.0963 24.7494L18.1947 25.5113L15.2931 26.2733C15.6989 27.8185 16.5077 29.2282 17.6369 30.3583L19.7591 28.2378ZM18.1947 25.5113L21.0963 24.7494C20.9605 24.2319 20.9644 23.6876 21.1079 23.1722L18.2177 22.368L15.3275 21.5638C14.8992 23.1029 14.8873 24.7281 15.2931 26.2733L18.1947 25.5113ZM18.2177 22.368L21.1113 23.1599C21.2455 22.6694 21.5053 22.2224 21.865 21.863L19.7444 19.7409L17.6239 17.6188C16.5263 18.7155 15.7336 20.0795 15.3241 21.5761L18.2177 22.368ZM19.7444 19.7409L21.865 21.863C22.2247 21.5035 22.6719 21.244 23.1625 21.1102L22.3727 18.216L21.5829 15.3218C20.086 15.7303 18.7214 16.522 17.6239 17.6188L19.7444 19.7409ZM22.3727 18.216L23.1748 21.1068C23.6904 20.9637 24.2347 20.9602 24.7522 21.0965L25.5165 18.1955L26.2809 15.2945C24.7357 14.8874 23.1102 14.898 21.5705 15.3252L22.3727 18.216ZM25.5165 18.1955L24.7522 21.0965C25.2696 21.2328 25.7416 21.5042 26.1197 21.8827L28.2421 19.7625L30.3645 17.6422C29.2352 16.5118 27.826 15.7016 26.2809 15.2945L25.5165 18.1955ZM28.2421 19.7625L26.1197 21.8827C26.4979 22.2613 26.7688 22.7335 26.9046 23.2511L29.8063 22.4897L32.7081 21.7282C32.3026 20.1827 31.4938 18.7726 30.3645 17.6422L28.2421 19.7625ZM29.8063 22.4897L26.9046 23.2511C27.0404 23.7686 27.0363 24.313 26.8927 24.8285L29.7827 25.6335L32.6726 26.4385C33.1014 24.8993 33.1136 23.2738 32.7081 21.7282L29.8063 22.4897ZM29.7827 25.6335L26.8891 24.8416C26.7548 25.3321 26.495 25.7791 26.1353 26.1385L28.2559 28.2606L30.3764 30.3827C31.474 29.286 32.2667 27.922 32.6763 26.4254L29.7827 25.6335ZM28.2559 28.2606L26.1353 26.1385C25.7775 26.4961 25.331 26.7553 24.8379 26.8898L25.6277 29.784L26.4175 32.6782C27.9118 32.2704 29.277 31.4813 30.3764 30.3827L28.2559 28.2606ZM43.5992 24.5355L46.4013 23.4641L46.3038 23.2091L43.5017 24.2805L40.6995 25.3519L40.797 25.6069L43.5992 24.5355ZM43.5017 24.2805L46.306 23.2148C42.8967 14.2438 33.4351 7.5 24.0002 7.5V10.5V13.5C30.8342 13.5 38.1336 18.6002 40.6973 25.3462L43.5017 24.2805ZM24.0002 10.5V7.5C14.5657 7.5 5.10389 14.2434 1.69593 23.2085L4.50016 24.2745L7.30438 25.3405C9.86643 18.6006 17.1656 13.5 24.0002 13.5V10.5ZM4.50016 24.2745L1.70263 23.1911L1.60213 23.4506L4.39966 24.534L7.19719 25.6174L7.29769 25.3579L4.50016 24.2745ZM4.39966 24.534L1.59788 23.4616C1.74009 23.0901 2.02405 22.7903 2.38729 22.6281L3.61013 25.3676L4.83297 28.1071C5.92282 27.6206 6.77478 26.7211 7.20143 25.6064L4.39966 24.534ZM3.61013 25.3676L2.38729 22.6281C2.75052 22.466 3.1633 22.4548 3.53482 22.597L2.46241 25.3988L1.38999 28.2005C2.50465 28.6272 3.74312 28.5935 4.83297 28.1071L3.61013 25.3676ZM2.46241 25.3988L3.53482 22.597C3.90633 22.7392 4.20613 23.0231 4.36828 23.3864L1.62881 24.6092L-1.11065 25.8321C-0.624161 26.9219 0.275344 27.7739 1.38999 28.2005L2.46241 25.3988ZM1.62881 24.6092L4.36828 23.3864C4.53042 23.7496 4.54163 24.1624 4.39943 24.5339L1.59766 23.4615L-1.20412 22.3891C-1.63076 23.5037 -1.59714 24.7422 -1.11065 25.8321L1.62881 24.6092ZM1.59766 23.4615L4.39429 24.5473L4.49329 24.2922L1.69666 23.2065L-1.09997 22.1207L-1.19897 22.3757L1.59766 23.4615ZM1.69666 23.2065L4.5011 24.2719C7.47743 16.4374 15.9805 10.5 24.0002 10.5V7.5V4.5C13.3958 4.5 2.71988 12.0656 -1.10779 22.1411L1.69666 23.2065ZM24.0002 7.5V10.5C32.0195 10.5 40.5241 16.4386 43.5006 24.2761L46.3052 23.211L49.1097 22.1459C45.2822 12.0674 34.6048 4.5 24.0002 4.5V7.5ZM46.3052 23.211L43.5017 24.279L43.5977 24.531L46.4012 23.463L49.2046 22.395L49.1086 22.143L46.3052 23.211ZM24.0002 40.5V37.5C15.9815 37.5 7.47916 31.5605 4.501 23.7233L1.69666 24.789L-1.10769 25.8547C2.72115 35.9305 13.3948 43.5 24.0002 43.5V40.5ZM1.69666 24.789L4.49582 23.7098L4.39982 23.4608L1.60066 24.54L-1.19851 25.6192L-1.10251 25.8682L1.69666 24.789ZM1.60066 24.54L4.39953 23.46C4.54274 23.8312 4.53264 24.244 4.37147 24.6077L1.62872 23.3922L-1.11402 22.1768C-1.59757 23.2679 -1.62786 24.5065 -1.19822 25.62L1.60066 24.54ZM1.62872 23.3922L4.37147 24.6077C4.21029 24.9714 3.91124 25.2562 3.54011 25.3994L2.46016 22.6005L1.38021 19.8016C0.26673 20.2313 -0.630472 21.0856 -1.11402 22.1768L1.62872 23.3922ZM2.46016 22.6005L3.54011 25.3994C3.16898 25.5426 2.75615 25.5325 2.39245 25.3713L3.60792 22.6286L4.82338 19.8858C3.73222 19.4023 2.49368 19.372 1.38021 19.8016L2.46016 22.6005ZM3.60792 22.6286L2.39245 25.3713C2.02876 25.2101 1.74398 24.9111 1.60078 24.54L4.39966 23.46L7.19853 22.38C6.7689 21.2666 5.91453 20.3694 4.82338 19.8858L3.60792 22.6286ZM4.39966 23.46L1.60089 24.5402L1.69989 24.7967L4.49866 23.7165L7.29743 22.6363L7.19843 22.3798L4.39966 23.46ZM4.49866 23.7165L1.69427 24.7821C5.10349 33.7546 14.5697 40.5 24.0002 40.5V37.5V34.5C17.1707 34.5 9.86683 29.3984 7.30304 22.6509L4.49866 23.7165ZM24.0002 37.5H21.0002V40.5H24.0002H27.0002V37.5H24.0002Z" fill="#DE3809" mask="url(#path-1-inside-1_10006_456)" />
</symbol><symbol id="icon-vocabulary" viewBox="0 0 32 32"><path fill="none" stroke="#de3809" stroke-linecap="round" stroke-linejoin="round" stroke-width="2" d="M16 6.667A2.67 2.67 0 0 0 13.333 4h-8a1.335 1.335 0 0 0-1.334 1.334v18.667a1.335 1.335 0 0 0 1.334 1.334h8A2.67 2.67 0 0 1 16 28.002m0-21.335A2.67 2.67 0 0 1 18.667 4h8a1.335 1.335 0 0 1 1.334 1.334v18.667a1.335 1.335 0 0 1-1.334 1.334h-8A2.67 2.67 0 0 0 16 28.002m0-21.335V28M9.333 9.333h1.333m-1.333 5.334h1.333m10.667-5.334h1.333m-1.333 5.334h1.333M21.333 20h1.333" style="stroke:var(--color1, #de3809)"/></symbol><symbol id="icon-whole-word" viewBox="0 0 48 48" fill="none">
  <path d="M1.63086 41.3765C1.57251 41.1855 1.533 40.9883 1.51367 40.7876C1.5331 40.9904 1.57285 41.1873 1.63086 41.3765ZM1.63086 41.3765C1.64612 41.4262 1.66584 41.4743 1.68359 41.5229C1.66587 41.4742 1.64604 41.4261 1.63086 41.3765ZM4.5 43.4995C4.30021 43.4995 4.10504 43.4794 3.91602 43.4419C4.107 43.4798 4.30243 43.4995 4.5 43.4995ZM3.91016 43.4409C3.86158 43.4312 3.81431 43.4169 3.7666 43.4048C3.81442 43.4169 3.8617 43.4312 3.91016 43.4409ZM44.2324 43.4048C44.1847 43.4168 44.1374 43.4312 44.0889 43.4409C44.1373 43.4312 44.1846 43.4168 44.2324 43.4048ZM3.61621 43.3667C3.59198 43.3592 3.56889 43.3484 3.54492 43.3403C3.56892 43.3484 3.592 43.3592 3.61621 43.3667ZM44.4541 43.3403C44.4301 43.3484 44.407 43.3592 44.3828 43.3667C44.407 43.3592 44.4301 43.3484 44.4541 43.3403ZM1.75684 41.7075C1.74983 41.6917 1.74111 41.6766 1.73438 41.6606C1.74108 41.6766 1.74986 41.6917 1.75684 41.7075ZM46.2646 41.6606C46.258 41.6765 46.2501 41.6918 46.2432 41.7075C46.2501 41.6918 46.258 41.6765 46.2646 41.6606ZM33.8594 19.5522C32.1781 19.7974 30.5615 20.9708 29.5674 22.7271L29.5586 22.7417L29.5508 22.7573C28.9902 23.8035 28.6475 24.9507 28.541 26.1294L28.5098 26.6362C28.5031 26.7684 28.5005 26.9009 28.5029 27.0337L28.5088 27.355L28.5098 27.3706V27.3872C28.5666 28.807 28.9372 30.1373 29.5566 31.2612L29.5645 31.2749C30.6236 33.1495 32.3977 34.3756 34.208 34.4966H34.2109C34.4056 34.5092 34.6012 34.5093 34.7959 34.4966H34.7979C36.2609 34.3988 37.7013 33.5801 38.7598 32.2778C37.6332 33.6831 36.086 34.5093 34.5 34.5093C33.2242 34.5093 32.0161 34.0072 31.0049 33.0952L28.5 30.8364V23.1821L31.0049 20.9224C31.8451 20.1647 32.8214 19.691 33.8594 19.5522ZM38.9238 32.0649C38.8792 32.1251 38.8342 32.1845 38.7881 32.2427C38.8346 32.1847 38.8789 32.1248 38.9238 32.0649ZM40.0137 29.98C39.9825 30.07 39.9498 30.1587 39.916 30.2466C39.9497 30.1584 39.9828 30.0698 40.0137 29.98ZM40.1611 29.5083C40.1322 29.6111 40.1017 29.7127 40.0693 29.813C40.1017 29.7124 40.1323 29.6108 40.1611 29.5083ZM40.2998 28.9497C40.268 29.1003 40.2313 29.2482 40.1924 29.394C40.2315 29.2476 40.2679 29.0996 40.2998 28.9497ZM40.4355 28.1089C40.4284 28.171 40.4214 28.2329 40.4131 28.2944C40.4216 28.2328 40.4283 28.1709 40.4355 28.1089ZM40.0762 24.2261C40.1051 24.3165 40.1321 24.408 40.1582 24.5005C40.132 24.4087 40.1054 24.317 40.0762 24.2261ZM39.8975 23.7202C39.9443 23.8395 39.9875 23.9612 40.0293 24.0845C39.9877 23.9622 39.9444 23.8406 39.8975 23.7202ZM39.7207 23.3032C39.775 23.4214 39.8268 23.5419 39.876 23.6646C39.8276 23.5428 39.7746 23.4229 39.7207 23.3032ZM19.4619 22.7485C19.4762 22.8845 19.4886 23.0239 19.4951 23.1675L19.4971 23.3032C19.4925 23.1167 19.4805 22.9317 19.4619 22.7485ZM38.6367 21.5884C38.6439 21.5968 38.6511 21.6053 38.6582 21.6138C38.651 21.6053 38.6439 21.5968 38.6367 21.5884ZM38.252 21.1724C37.4535 20.3861 36.5018 19.8457 35.5107 19.6216C36.5081 19.8415 37.4556 20.3795 38.252 21.1724ZM18.4043 20.1089C18.4208 20.1278 18.4369 20.1472 18.4531 20.1665C18.437 20.1472 18.4209 20.1279 18.4043 20.1089ZM35.2666 19.5747C35.3201 19.5836 35.3735 19.5932 35.4268 19.604C35.3735 19.5929 35.32 19.5839 35.2666 19.5747ZM33.9033 19.5464C33.9598 19.5394 34.0164 19.5338 34.0732 19.5288C34.0166 19.5344 33.9598 19.5387 33.9033 19.5464ZM9.87012 19.2769C9.87596 19.2736 9.88182 19.2703 9.8877 19.2671C9.88182 19.2703 9.87597 19.2736 9.87012 19.2769ZM10.0664 19.1733C10.0819 19.1657 10.0976 19.1584 10.1133 19.1509C10.0976 19.1584 10.0819 19.1657 10.0664 19.1733ZM11.5811 18.6753C11.5882 18.6739 11.5953 18.6718 11.6025 18.6704C11.5953 18.6718 11.5882 18.6739 11.5811 18.6753ZM14.499 18.5083C14.6546 18.5162 14.8059 18.5284 14.9531 18.5435C14.8041 18.5288 14.6536 18.5169 14.502 18.5093C14.4723 18.5078 14.4426 18.5067 14.4131 18.5054L14.499 18.5083ZM12.4971 18.5425C12.5185 18.5404 12.54 18.5386 12.5615 18.5366C12.54 18.5386 12.5185 18.5404 12.4971 18.5425ZM12.8262 18.5161C12.8553 18.5142 12.8846 18.512 12.9141 18.5103C12.8847 18.512 12.8554 18.5142 12.8262 18.5161ZM13.2031 18.4966C13.2142 18.4962 13.2252 18.496 13.2363 18.4956C13.2253 18.496 13.2142 18.4962 13.2031 18.4966ZM43.5 43.4995C43.6972 43.4995 43.8923 43.4797 44.083 43.4419C43.8943 43.4793 43.6995 43.4995 43.5 43.4995ZM19.4971 25.5229L18.4307 25.2007L17.8242 25.0181L17.8047 25.0122L17.4814 24.9233C15.8587 24.5007 14.1703 24.3845 12.5029 24.5806H12.4971C11.0463 24.7571 9.77735 25.2538 8.86035 26.1567C7.99157 27.0123 7.56464 28.1097 7.50488 29.2886C7.55187 28.0224 8.006 26.9758 8.7627 26.188C9.57035 25.3472 10.8095 24.7127 12.498 24.5083L12.4971 24.5073C14.209 24.3061 15.9438 24.435 17.6074 24.8862L19.5 25.3989V31.7124L18.5586 32.2505L18.8398 32.0601L19.4971 31.6138V25.5229ZM46.5 40.4995C46.5 40.5965 46.4944 40.6929 46.4854 40.7876C46.4945 40.6924 46.5 40.596 46.5 40.4995ZM46.3682 41.3755C46.3528 41.4256 46.3333 41.474 46.3154 41.5229C46.3333 41.4739 46.3529 41.4255 46.3682 41.3755ZM40.3789 28.521C40.3585 28.6475 40.3359 28.7725 40.3105 28.896C40.3361 28.7721 40.3583 28.647 40.3789 28.521ZM19.4336 22.5083C19.4416 22.5639 19.4485 22.6203 19.4551 22.6772C19.4487 22.6207 19.4414 22.5644 19.4336 22.5083ZM38.2754 21.1968C38.3368 21.2585 38.3975 21.3215 38.457 21.3862C38.3972 21.3219 38.3372 21.2582 38.2754 21.1968Z" fill="#0E1F34" stroke="#DE3809" stroke-width="3" />
</symbol><symbol id="icon-anchor" viewBox="0 0 32 32"><path fill="none" stroke="#f25022" stroke-linecap="round" stroke-linejoin="round" stroke-width="2.667" d="M28 25.333C28 18.706 22.627 12 16 12m0 0C9.373 12 4 18.706 4 25.333M16 12a2.667 2.667 0 0 0 2.667-2.667M16 12a2.667 2.667 0 0 1-2.667-2.667m0 0H6.666m6.667 0a2.667 2.667 0 1 1 5.334 0m-12 0a2 2 0 1 1-3.999.001 2 2 0 0 1 3.999-.001m18.666 0h-6.667m6.667 0a2 2 0 1 0 3.999.001 2 2 0 0 0-3.999-.001" style="stroke:var(--color8, #f25022)"/></symbol></defs></svg>